<?xml version="1.0" encoding="utf-8"?>
<!DOCTYPE svg PUBLIC "-//W3C//DTD SVG 1.0//EN" "http://www.w3.org/TR/2001/REC-SVG-20010904/DTD/svg10.dtd">
<svg version="1.0" xmlns="http://www.w3.org/2000/svg" width="523px" height="146px" viewBox="0 0 523 146" preserveAspectRatio="xMidYMid meet">
 <g fill="#393e46">
  <path d="M204.2 108.9 c-7 -1.2 -13.8 -4.8 -18.9 -10.1 -13.1 -13.5 -13.1 -35.1 0 -48.6 6.7 -7 12.6 -9.5 23.3 -10 8.3 -0.4 9.7 -0.2 15.2 2.3 3.3 1.5 6.9 3.7 8.1 4.9 l2 2.1 -4.4 4.7 c-3.6 3.7 -4.6 4.3 -5.5 3.3 -2.3 -2.8 -9.7 -4.8 -15.9 -4.3 -17.2 1.2 -25.4 21.1 -14.6 35.3 4 5.1 9.4 7.5 17.6 7.5 5.2 0 7.3 -0.5 10 -2.3 3.3 -2.2 9.9 -10 9.9 -11.8 0 -0.5 -4.5 -0.9 -10 -0.9 l-10 0 0 -6.5 0 -6.5 17.1 0 17.1 0 -0.4 7.8 c-0.6 13.6 -8 24.6 -20.3 30.2 -7 3.2 -12.9 4.1 -20.3 2.9z"/>
  <path d="M251.8 107.3 c-0.2 -0.9 -0.2 -16.5 0 -34.6 l0.3 -33 6.2 5.8 c3.4 3.2 12.5 12.1 20.3 19.7 7.7 7.6 14.3 13.8 14.7 13.8 0.4 0 0.7 -8.8 0.7 -19.5 l0 -19.5 6.5 0 6.5 0 0 34.6 0 34.6 -8 -7.3 c-4.3 -4.1 -13.8 -13 -21 -19.8 l-13 -12.3 0 19.6 0 19.6 -6.4 0 c-5.2 0 -6.5 -0.3 -6.8 -1.7z"/>
  <path d="M341 74.5 l0 -34.7 13.3 0.4 c11.7 0.3 13.8 0.6 18.9 3 25.7 12 25.7 50.6 0 62.6 -5.1 2.4 -7.2 2.7 -18.9 3 l-13.3 0.4 0 -34.7z m24.3 20.4 c4.9 -1.3 11.3 -7.1 12.7 -11.4 0.6 -1.8 1.1 -6 1.2 -9.2 0.3 -12.2 -6.7 -19.9 -19.2 -21 l-6 -0.6 0 21.7 0 21.6 3.8 0 c2 0 5.4 -0.5 7.5 -1.1z"/>
  <path d="M399 74.5 l0 -34.5 20.5 0 20.5 0 0 6.5 0 6.5 -14 0 -14 0 0 7.5 0 7.5 10.5 0 10.5 0 0 6.5 0 6.5 -10.5 0 -10.5 0 0 7.5 0 7.5 14 0 14 0 0 6.5 0 6.5 -20.5 0 -20.5 0 0 -34.5z"/>
  <path d="M476.2 107 c-0.5 -1.4 -7.3 -16.8 -15.1 -34.2 -7.7 -17.5 -14.1 -32 -14.1 -32.3 0 -0.3 3 -0.5 6.7 -0.3 l6.7 0.3 7.6 17.5 c4.2 9.6 8 18.3 8.6 19.3 0.8 1.5 2.5 -1.7 9.3 -17.7 l8.3 -19.6 6.9 0 6.8 0 -6.5 14.8 c-3.6 8.1 -7.4 16.7 -8.4 19.2 -1 2.5 -5 11.5 -8.9 20 -6.3 13.9 -7.1 15.2 -7.9 13z"/>
 </g>
 <g fill="#0e5596">
  <path d="M22.4 124.7 c4.1 -8.4 12 -24.9 17.6 -36.7 l10.3 -21.5 29.6 -29.7 29.6 -29.8 6.5 0 6.5 0 -29 29 -28.9 28.9 3.9 1.6 3.8 1.7 30.6 -30.6 30.6 -30.6 6.8 0 6.7 0 0 7.8 0 7.7 -30.3 30.3 -30.3 30.2 1.9 3.6 1.9 3.7 28.4 -28.4 28.4 -28.4 0 6.5 0 6.5 -28.8 28.7 -28.7 28.7 -22 10.7 c-12.1 5.8 -28.8 13.9 -37.2 17.9 l-15.1 7.3 7.2 -15.1z m43.1 -10.6 c26.9 -13.1 25.1 -11 19.4 -22.8 -5 -10.4 -15.7 -19.8 -27.7 -24.3 l-4.7 -1.8 -11.5 24 c-6.3 13.3 -11.5 24.5 -11.5 24.9 0 0.5 1.5 1.7 3.4 2.7 2 1 4.3 3.3 5.4 5.5 1.1 2.1 2.3 3.7 2.7 3.5 0.5 -0.2 11.5 -5.4 24.5 -11.7z"/>
 </g>
</svg>