<?xml version="1.0" encoding="UTF-8"?>
<!DOCTYPE svg PUBLIC "-//W3C//DTD SVG 1.1//EN" "http://www.w3.org/Graphics/SVG/1.1/DTD/svg11.dtd">
<svg xmlns="http://www.w3.org/2000/svg" version="1.1" width="782px" height="140px" style="shape-rendering:geometricPrecision; text-rendering:geometricPrecision; image-rendering:optimizeQuality; fill-rule:evenodd; clip-rule:evenodd" xmlns:xlink="http://www.w3.org/1999/xlink">
<g><path style="opacity:0.18" fill="#fbf8fd" d="M 90.5,40.5 C 105.167,40.5 119.833,40.5 134.5,40.5C 135.716,33.868 136.716,27.2013 137.5,20.5C 138.785,17.4115 139.451,14.0781 139.5,10.5C 140.043,10.44 140.376,10.1067 140.5,9.5C 126.85,8.50079 113.183,8.16746 99.5,8.5C 98.8333,8.5 98.1667,8.5 97.5,8.5C 81.5,8.5 65.5,8.5 49.5,8.5C 66.0755,8.01822 82.7421,7.01822 99.5,5.5C 113.325,7.36392 127.325,8.03059 141.5,7.5C 140.197,18.8215 138.197,29.9882 135.5,41C 120.328,41.8277 105.328,41.6611 90.5,40.5 Z"/></g>
<g><path style="opacity:0.254" fill="#fbf4fc" d="M 424.5,7.5 C 424.5,7.83333 424.5,8.16667 424.5,8.5C 422.833,8.5 421.167,8.5 419.5,8.5C 406.833,8.5 394.167,8.5 381.5,8.5C 381.5,10.1667 381.5,11.8333 381.5,13.5C 379.9,19.2748 378.9,25.2748 378.5,31.5C 374.404,50.9201 371.071,70.5867 368.5,90.5C 365.585,100.532 363.585,110.866 362.5,121.5C 361.539,123.265 361.205,125.265 361.5,127.5C 360.532,129.607 360.198,131.941 360.5,134.5C 373.011,134.829 385.345,134.495 397.5,133.5C 399.402,127.32 400.402,120.987 400.5,114.5C 405.338,89.9723 409.671,65.3057 413.5,40.5C 413.833,40.5 414.167,40.5 414.5,40.5C 426.833,40.5 439.167,40.5 451.5,40.5C 451.833,41.8333 452.167,43.1667 452.5,44.5C 450.741,43.1286 448.741,42.1286 446.5,41.5C 436.33,41.672 425.997,42.0053 415.5,42.5C 409.991,73.3897 404.324,104.223 398.5,135C 385.171,135.5 371.837,135.667 358.5,135.5C 366.05,92.8688 373.383,50.2021 380.5,7.5C 395.167,7.5 409.833,7.5 424.5,7.5 Z"/></g>
<g><path style="opacity:0.257" fill="#faf8e3" d="M 631.5,8.5 C 606.833,8.5 582.167,8.5 557.5,8.5C 544.989,8.17145 532.655,8.50478 520.5,9.5C 518.422,18.6256 516.755,27.959 515.5,37.5C 515.5,38.1667 515.5,38.8333 515.5,39.5C 514.215,42.5885 513.549,45.9219 513.5,49.5C 512.833,53.1667 512.167,56.8333 511.5,60.5C 510.833,61.8333 510.167,63.1667 509.5,64.5C 512.558,45.8211 515.724,27.1545 519,8.5C 519.689,7.64332 520.522,6.97665 521.5,6.5C 558.229,7.09273 594.896,7.7594 631.5,8.5 Z"/></g>
<g><path style="opacity:0.544" fill="#c4b8d8" d="M 99.5,9.5 C 99.5,9.16667 99.5,8.83333 99.5,8.5C 113.183,8.16746 126.85,8.50079 140.5,9.5C 140.376,10.1067 140.043,10.44 139.5,10.5C 126.344,9.5044 113.01,9.17107 99.5,9.5 Z"/></g>
<g><path style="opacity:0.826" fill="#e79fa0" d="M 299.5,14.5 C 299.5,12.8333 299.5,11.1667 299.5,9.5C 287.087,9.18745 274.753,9.52078 262.5,10.5C 262.062,10.5654 261.728,10.3988 261.5,10C 262.333,9.16667 263.167,8.33333 264,7.5C 275.412,8.03714 287.912,8.53714 301.5,9C 300.891,10.9483 300.224,12.7816 299.5,14.5 Z"/></g>
<g><path style="opacity:0.701" fill="#a282a4" d="M 419.5,8.5 C 419.5,8.83333 419.5,9.16667 419.5,9.5C 419.167,9.5 418.833,9.5 418.5,9.5C 406.814,9.16775 395.148,9.50109 383.5,10.5C 383.058,11.7387 382.391,12.7387 381.5,13.5C 381.5,11.8333 381.5,10.1667 381.5,8.5C 394.167,8.5 406.833,8.5 419.5,8.5 Z"/></g>
<g><path style="opacity:0.681" fill="#baba6c" d="M 425.5,8.5 C 442.503,8.3334 459.503,8.50006 476.5,9C 477.056,9.38258 477.389,9.88258 477.5,10.5C 461.201,9.19648 444.867,9.19648 428.5,10.5C 429.127,11.4168 429.461,12.4168 429.5,13.5C 428.143,12.4097 427.143,11.0764 426.5,9.5C 425.833,9.5 425.5,9.16667 425.5,8.5 Z"/></g>
<g><path style="opacity:0.686" fill="#b9bb6a" d="M 520.5,9.5 C 532.655,8.50478 544.989,8.17145 557.5,8.5C 557.5,8.83333 557.5,9.16667 557.5,9.5C 557.795,11.7354 557.461,13.7354 556.5,15.5C 556.5,13.5 556.5,11.5 556.5,9.5C 544.5,9.5 532.5,9.5 520.5,9.5 Z"/></g>
<g><path style="opacity:0.656" fill="#e69296" d="M 557.5,9.5 C 557.5,9.16667 557.5,8.83333 557.5,8.5C 582.167,8.5 606.833,8.5 631.5,8.5C 631.833,8.5 632.167,8.5 632.5,8.5C 633.338,8.84171 633.672,9.50838 633.5,10.5C 633.737,11.791 633.404,12.791 632.5,13.5C 632.5,12.1667 632.5,10.8333 632.5,9.5C 608.167,9.5 583.833,9.5 559.5,9.5C 558.833,9.5 558.167,9.5 557.5,9.5 Z"/></g>
<g><path style="opacity:0.867" fill="#f2d5a3" d="M 740.5,8.5 C 751.403,8.19018 762.569,7.85685 774,7.5C 778.007,8.17287 778.507,9.83954 775.5,12.5C 775.5,11.5 775.5,10.5 775.5,9.5C 763.783,9.79134 752.116,9.45801 740.5,8.5 Z"/></g>
<g><path style="opacity:0.892" fill="#9e8cc0" d="M 99.5,9.5 C 113.01,9.17107 126.344,9.5044 139.5,10.5C 139.451,14.0781 138.785,17.4115 137.5,20.5C 137.5,17.1667 137.5,13.8333 137.5,10.5C 124.829,10.3334 112.162,10.5001 99.5,11C 98.7562,12.0386 97.7562,12.5386 96.5,12.5C 97.1667,11.1667 98.1667,10.1667 99.5,9.5 Z"/></g>
<g><path style="opacity:1" fill="#f07b7d" d="M 299.5,14.5 C 299.5,15.5 299.5,16.5 299.5,17.5C 298.883,17.6107 298.383,17.944 298,18.5C 297.503,21.146 297.336,23.8127 297.5,26.5C 297.5,27.5 297.5,28.5 297.5,29.5C 295.735,32.1226 295.068,35.1226 295.5,38.5C 295.5,38.8333 295.5,39.1667 295.5,39.5C 294.857,41.0764 293.857,42.4097 292.5,43.5C 293.508,38.4674 294.675,33.4674 296,28.5C 296.799,23.9132 296.632,19.4132 295.5,15C 297.439,14.0922 298.439,12.5922 298.5,10.5C 287.167,10.5 275.833,10.5 264.5,10.5C 264.741,13.0336 263.741,14.7002 261.5,15.5C 261.366,13.7085 261.699,12.0418 262.5,10.5C 274.753,9.52078 287.087,9.18745 299.5,9.5C 299.5,11.1667 299.5,12.8333 299.5,14.5 Z"/></g>
<g><path style="opacity:1" fill="#7ed0da" d="M 632.5,8.5 C 645.194,7.26583 658.194,7.26583 671.5,8.5C 674.918,22.007 677.585,35.6737 679.5,49.5C 676.56,45.38 674.56,40.7134 673.5,35.5C 673.756,34.3109 674.089,33.1442 674.5,32C 673.003,24.8383 671.669,17.6716 670.5,10.5C 659.167,10.5 647.833,10.5 636.5,10.5C 637.458,20.4546 638.458,30.4546 639.5,40.5C 637.622,33.731 636.289,26.731 635.5,19.5C 635.324,16.2727 634.657,13.2727 633.5,10.5C 633.672,9.50838 633.338,8.84171 632.5,8.5 Z"/></g>
<g><path style="opacity:1" fill="#f4c169" d="M 740.5,8.5 C 752.116,9.45801 763.783,9.79134 775.5,9.5C 775.5,10.5 775.5,11.5 775.5,12.5C 775.008,14.8185 774.008,16.8185 772.5,18.5C 772.575,15.7938 772.908,13.1272 773.5,10.5C 762.495,10.3335 751.495,10.5002 740.5,11C 739.897,13.0714 738.564,14.2381 736.5,14.5C 736.87,11.733 738.204,9.733 740.5,8.5 Z"/></g>
<g><path style="opacity:1" fill="#a088c8" d="M 137.5,20.5 C 135.955,21.2297 135.122,22.563 135,24.5C 133.95,29.4482 133.45,34.4482 133.5,39.5C 110.831,39.6666 88.1642,39.5 65.5,39C 67.3734,37.2962 69.0401,35.4628 70.5,33.5C 74.1002,31.5698 77.1002,28.9031 79.5,25.5C 82.8523,22.8098 86.1856,20.1431 89.5,17.5C 92.0271,16.1247 94.3604,14.458 96.5,12.5C 97.7562,12.5386 98.7562,12.0386 99.5,11C 112.162,10.5001 124.829,10.3334 137.5,10.5C 137.5,13.8333 137.5,17.1667 137.5,20.5 Z"/></g>
<g><path style="opacity:1" fill="#fd6f6f" d="M 292.5,43.5 C 292.665,46.8499 292.498,50.1832 292,53.5C 290.831,58.1765 289.664,62.8432 288.5,67.5C 286.947,76.8058 285.614,86.1392 284.5,95.5C 283.521,98.6248 283.187,101.958 283.5,105.5C 283.5,105.833 283.5,106.167 283.5,106.5C 281.933,107.681 281.099,109.347 281,111.5C 280.503,114.146 280.336,116.813 280.5,119.5C 279.5,119.5 278.5,119.5 277.5,119.5C 275.323,115.138 272.656,111.138 269.5,107.5C 268.647,103.98 266.647,101.313 263.5,99.5C 262.833,98.1667 262.167,96.8333 261.5,95.5C 258.667,89.8303 255.334,84.497 251.5,79.5C 251.5,77.8333 251.5,76.1667 251.5,74.5C 251.5,73.8333 251.5,73.1667 251.5,72.5C 252.117,72.3893 252.617,72.056 253,71.5C 253.29,69.0796 253.79,66.7463 254.5,64.5C 255.117,64.3893 255.617,64.056 256,63.5C 256.522,55.8296 257.022,48.1629 257.5,40.5C 257.5,40.1667 257.5,39.8333 257.5,39.5C 259.773,34.5494 260.773,29.2161 260.5,23.5C 260.401,20.7628 260.735,18.0961 261.5,15.5C 263.741,14.7002 264.741,13.0336 264.5,10.5C 275.833,10.5 287.167,10.5 298.5,10.5C 298.439,12.5922 297.439,14.0922 295.5,15C 296.632,19.4132 296.799,23.9132 296,28.5C 294.675,33.4674 293.508,38.4674 292.5,43.5 Z"/></g>
<g><path style="opacity:1" fill="#b2c33e" d="M 477.5,10.5 C 478.031,12.5441 479.198,14.2107 481,15.5C 481.109,18.6685 482.275,21.3351 484.5,23.5C 485.086,23.2907 485.586,22.9574 486,22.5C 487.678,24.345 489.511,26.0116 491.5,27.5C 493.783,31.5244 495.45,35.8577 496.5,40.5C 481.833,40.5 467.167,40.5 452.5,40.5C 452.167,40.5 451.833,40.5 451.5,40.5C 451.167,39.5 450.5,38.8333 449.5,38.5C 448.369,35.7447 446.702,33.4114 444.5,31.5C 441.161,27.3221 437.994,22.9888 435,18.5C 433.296,16.6266 431.463,14.9599 429.5,13.5C 429.461,12.4168 429.127,11.4168 428.5,10.5C 444.867,9.19648 461.201,9.19648 477.5,10.5 Z"/></g>
<g><path style="opacity:1" fill="#b2c33e" d="M 520.5,9.5 C 532.5,9.5 544.5,9.5 556.5,9.5C 556.5,11.5 556.5,13.5 556.5,15.5C 556.5,16.8333 556.5,18.1667 556.5,19.5C 555.566,20.5676 555.232,21.901 555.5,23.5C 554.232,25.9052 553.565,28.5718 553.5,31.5C 553.5,34.1667 553.5,36.8333 553.5,39.5C 553.5,39.8333 553.5,40.1667 553.5,40.5C 553.167,40.5 552.833,40.5 552.5,40.5C 552.167,40.5 551.833,40.5 551.5,40.5C 539.833,40.5 528.167,40.5 516.5,40.5C 516.5,39.5 516.5,38.5 516.5,37.5C 518.556,28.1831 519.89,18.8497 520.5,9.5 Z"/></g>
<g><path style="opacity:1" fill="#38c6d7" d="M 679.5,49.5 C 679.534,58.2384 680.367,66.9051 682,75.5C 682.421,78.0199 683.588,80.0199 685.5,81.5C 685.5,81.8333 685.5,82.1667 685.5,82.5C 685.335,85.8499 685.502,89.1832 686,92.5C 686.2,94.3197 687.034,95.653 688.5,96.5C 688.5,96.8333 688.5,97.1667 688.5,97.5C 688.5,99.5 688.5,101.5 688.5,103.5C 683.085,113.998 677.418,124.332 671.5,134.5C 667.019,135.648 662.352,135.815 657.5,135C 655.821,132.435 655.154,129.602 655.5,126.5C 655.451,122.922 654.785,119.589 653.5,116.5C 653.5,116.167 653.5,115.833 653.5,115.5C 653.247,111.96 652.581,108.627 651.5,105.5C 651.662,103.473 651.495,101.473 651,99.5C 650.617,98.944 650.117,98.6107 649.5,98.5C 649.5,97.1667 649.5,95.8333 649.5,94.5C 649.58,91.2186 648.913,88.2186 647.5,85.5C 646.197,81.6179 645.53,77.6179 645.5,73.5C 645.662,71.4727 645.495,69.4727 645,67.5C 644.617,66.944 644.117,66.6107 643.5,66.5C 643.5,65.1667 643.5,63.8333 643.5,62.5C 643.58,59.2186 642.913,56.2186 641.5,53.5C 640.09,49.2953 639.423,44.962 639.5,40.5C 638.458,30.4546 637.458,20.4546 636.5,10.5C 647.833,10.5 659.167,10.5 670.5,10.5C 671.669,17.6716 673.003,24.8383 674.5,32C 674.089,33.1442 673.756,34.3109 673.5,35.5C 674.56,40.7134 676.56,45.38 679.5,49.5 Z"/></g>
<g><path style="opacity:1" fill="#fdb945" d="M 772.5,18.5 C 767.666,23.1666 764.666,28.8333 763.5,35.5C 761.952,35.8212 761.285,36.8212 761.5,38.5C 761.5,38.8333 761.5,39.1667 761.5,39.5C 759.743,40.292 758.409,41.6253 757.5,43.5C 754.945,47.9421 752.945,52.6088 751.5,57.5C 750.325,57.281 749.325,57.6143 748.5,58.5C 747.82,60.8889 746.986,63.2222 746,65.5C 744.989,66.3366 743.822,66.67 742.5,66.5C 742.492,69.5448 742.159,72.5448 741.5,75.5C 740.5,75.5 739.5,75.5 738.5,75.5C 738.657,76.8734 738.49,78.2068 738,79.5C 736.13,83.2397 734.297,86.9063 732.5,90.5C 731.5,90.5 730.5,90.5 729.5,90.5C 729.662,92.5273 729.495,94.5273 729,96.5C 725.86,99.4528 724.36,103.119 724.5,107.5C 724.34,109.153 723.674,110.486 722.5,111.5C 720.241,112.344 719.241,114.011 719.5,116.5C 715.691,121.433 712.358,126.766 709.5,132.5C 704.233,134.023 699.233,133.69 694.5,131.5C 694.5,130.167 694.5,128.833 694.5,127.5C 693.508,120.936 692.675,114.27 692,107.5C 691.617,106.944 691.117,106.611 690.5,106.5C 691.321,102.716 692.321,99.0492 693.5,95.5C 694.11,94.609 694.443,93.609 694.5,92.5C 696.509,90.9423 698.176,88.9423 699.5,86.5C 700.946,84.3821 701.613,82.0488 701.5,79.5C 702.906,79.0269 703.573,78.0269 703.5,76.5C 704.5,76.5 705.5,76.5 706.5,76.5C 706.343,75.1266 706.51,73.7932 707,72.5C 711.741,66.0083 715.741,59.0083 719,51.5C 719.494,49.8659 719.66,48.1992 719.5,46.5C 719.66,44.847 720.326,43.5137 721.5,42.5C 723.104,41.713 723.771,40.3797 723.5,38.5C 724.906,38.0269 725.573,37.0269 725.5,35.5C 726.496,35.5858 727.329,35.2524 728,34.5C 730.064,31.1402 731.231,27.4735 731.5,23.5C 734.518,22.145 735.851,19.8116 735.5,16.5C 735.328,15.5084 735.662,14.8417 736.5,14.5C 738.564,14.2381 739.897,13.0714 740.5,11C 751.495,10.5002 762.495,10.3335 773.5,10.5C 772.908,13.1272 772.575,15.7938 772.5,18.5 Z"/></g>
<g><path style="opacity:1" fill="#9183a8" d="M 203.5,11.5 C 204.906,11.9731 205.573,12.9731 205.5,14.5C 204.391,14.4431 203.391,14.1098 202.5,13.5C 197.797,11.8844 196.463,13.5511 198.5,18.5C 197.081,27.0136 195.414,35.1803 193.5,43C 193.393,45.2206 194.06,47.0539 195.5,48.5C 194.868,52.2005 194.368,55.8671 194,59.5C 195,61.5 196,63.5 197,65.5C 197.308,64.6919 197.808,64.0253 198.5,63.5C 199.847,69.6656 202.681,74.999 207,79.5C 207.483,80.448 207.649,81.448 207.5,82.5C 202.589,76.3446 197.923,70.0112 193.5,63.5C 193.167,62.1667 192.833,60.8333 192.5,59.5C 191.969,57.4559 190.802,55.7893 189,54.5C 188.805,52.7928 188.805,51.1261 189,49.5C 188.167,48.5 187.333,47.5 186.5,46.5C 185.583,47.1272 184.583,47.4606 183.5,47.5C 182.03,44.6819 181.03,41.6819 180.5,38.5C 179.5,38.5 178.5,38.5 177.5,38.5C 176.246,36.4622 174.579,34.7956 172.5,33.5C 172.672,32.5084 172.338,31.8417 171.5,31.5C 171.107,29.7162 170.441,28.0495 169.5,26.5C 169.278,24.3925 168.278,22.7258 166.5,21.5C 168.887,18.9057 168.887,16.4057 166.5,14C 166.759,12.7387 167.426,11.7387 168.5,11C 180.178,10.4338 191.844,10.6004 203.5,11.5 Z"/></g>
<g><path style="opacity:1" fill="#a06cab" d="M 418.5,9.5 C 418.483,11.5648 418.15,13.5648 417.5,15.5C 416.043,20.598 415.376,25.9313 415.5,31.5C 415.5,34.1667 415.5,36.8333 415.5,39.5C 414.833,39.5 414.5,39.8333 414.5,40.5C 414.167,40.5 413.833,40.5 413.5,40.5C 401.833,40.5 390.167,40.5 378.5,40.5C 378.5,37.5 378.5,34.5 378.5,31.5C 379.725,30.8478 380.392,29.6811 380.5,28C 381.285,23.1968 381.618,18.3634 381.5,13.5C 382.391,12.7387 383.058,11.7387 383.5,10.5C 395.148,9.50109 406.814,9.16775 418.5,9.5 Z"/></g>
<g><path style="opacity:1" fill="#6d9ac8" d="M 97.5,8.5 C 98.1667,8.5 98.8333,8.5 99.5,8.5C 99.5,8.83333 99.5,9.16667 99.5,9.5C 98.1667,10.1667 97.1667,11.1667 96.5,12.5C 94.3604,14.458 92.0271,16.1247 89.5,17.5C 91.4897,14.5117 93.8231,11.8451 96.5,9.5C 97.1667,9.5 97.5,9.16667 97.5,8.5 Z"/></g>
<g><path style="opacity:1" fill="#21adcb" d="M 96.5,9.5 C 93.8231,11.8451 91.4897,14.5117 89.5,17.5C 86.1856,20.1431 82.8523,22.8098 79.5,25.5C 75.8998,27.4302 72.8998,30.0969 70.5,33.5C 67.1667,34.8333 64.8333,37.1667 63.5,40.5C 63.1667,40.5 62.8333,40.5 62.5,40.5C 60.6119,39.7249 58.6119,39.7249 56.5,40.5C 44.8333,40.5 33.1667,40.5 21.5,40.5C 20.9816,39.4226 20.6483,38.2559 20.5,37C 21.6213,34.71 22.9546,32.5434 24.5,30.5C 30.6166,26.5482 36.2833,22.0482 41.5,17C 44.0667,14.9031 47.0667,13.5698 50.5,13C 49.09,12.6322 48.09,11.7989 47.5,10.5C 63.8197,9.50055 80.1531,9.16722 96.5,9.5 Z"/></g>
<g><path style="opacity:1" fill="#9381ae" d="M 202.5,13.5 C 199.889,24.6346 197.889,35.968 196.5,47.5C 195.833,47.5 195.5,47.8333 195.5,48.5C 194.06,47.0539 193.393,45.2206 193.5,43C 195.414,35.1803 197.081,27.0136 198.5,18.5C 196.463,13.5511 197.797,11.8844 202.5,13.5 Z"/></g>
<g><path style="opacity:1" fill="#e68061" d="M 557.5,9.5 C 558.167,9.5 558.833,9.5 559.5,9.5C 558.863,12.456 558.363,15.456 558,18.5C 557.617,19.056 557.117,19.3893 556.5,19.5C 556.5,18.1667 556.5,16.8333 556.5,15.5C 557.461,13.7354 557.795,11.7354 557.5,9.5 Z"/></g>
<g><path style="opacity:0.014" fill="#f1f8f8" d="M 633.5,10.5 C 634.657,13.2727 635.324,16.2727 635.5,19.5C 634.609,18.8902 633.609,18.5569 632.5,18.5C 632.5,16.8333 632.5,15.1667 632.5,13.5C 633.404,12.791 633.737,11.791 633.5,10.5 Z"/></g>
<g><path style="opacity:1" fill="#fc6f6f" d="M 426.5,9.5 C 427.143,11.0764 428.143,12.4097 429.5,13.5C 432.972,20.6504 437.972,26.6504 444.5,31.5C 445.511,33.3716 446.345,35.3716 447,37.5C 447.671,38.2524 448.504,38.5858 449.5,38.5C 438.346,39.4948 427.012,39.8281 415.5,39.5C 415.5,36.8333 415.5,34.1667 415.5,31.5C 415.833,31.5 416.167,31.5 416.5,31.5C 417.999,28.9527 419.499,26.286 421,23.5C 421.263,19.1649 421.097,14.8316 420.5,10.5C 422.735,10.7947 424.735,10.4614 426.5,9.5 Z"/></g>
<g><path style="opacity:1" fill="#fe6f6f" d="M 559.5,9.5 C 583.833,9.5 608.167,9.5 632.5,9.5C 632.5,10.8333 632.5,12.1667 632.5,13.5C 629.613,21.4332 627.613,29.7665 626.5,38.5C 602.5,38.5 578.5,38.5 554.5,38.5C 554.5,37.5 554.5,36.5 554.5,35.5C 555.978,35.762 557.311,35.4287 558.5,34.5C 556.63,29.7388 555.963,24.7388 556.5,19.5C 557.117,19.3893 557.617,19.056 558,18.5C 558.363,15.456 558.863,12.456 559.5,9.5 Z"/></g>
<g><path style="opacity:1" fill="#f5727b" d="M 419.5,8.5 C 421.167,8.5 422.833,8.5 424.5,8.5C 424.833,8.5 425.167,8.5 425.5,8.5C 425.5,9.16667 425.833,9.5 426.5,9.5C 424.735,10.4614 422.735,10.7947 420.5,10.5C 421.097,14.8316 421.263,19.1649 421,23.5C 419.499,26.286 417.999,28.9527 416.5,31.5C 416.342,28.0977 416.676,24.7644 417.5,21.5C 419.136,17.7905 419.802,13.7905 419.5,9.5C 419.5,9.16667 419.5,8.83333 419.5,8.5 Z"/></g>
<g><path style="opacity:0.942" fill="#bbc369" d="M 520.5,9.5 C 519.89,18.8497 518.556,28.1831 516.5,37.5C 516.167,37.5 515.833,37.5 515.5,37.5C 516.755,27.959 518.422,18.6256 520.5,9.5 Z"/></g>
<g><path style="opacity:0.984" fill="#f1a9aa" d="M 299.5,17.5 C 299.142,20.6888 298.475,23.6888 297.5,26.5C 297.336,23.8127 297.503,21.146 298,18.5C 298.383,17.944 298.883,17.6107 299.5,17.5 Z"/></g>
<g><path style="opacity:0.914" fill="#a37da5" d="M 381.5,13.5 C 381.618,18.3634 381.285,23.1968 380.5,28C 380.392,29.6811 379.725,30.8478 378.5,31.5C 378.9,25.2748 379.9,19.2748 381.5,13.5 Z"/></g>
<g><path style="opacity:1" fill="#d86e8b" d="M 418.5,9.5 C 418.833,9.5 419.167,9.5 419.5,9.5C 419.802,13.7905 419.136,17.7905 417.5,21.5C 417.5,19.5 417.5,17.5 417.5,15.5C 418.15,13.5648 418.483,11.5648 418.5,9.5 Z"/></g>
<g><path style="opacity:0.996" fill="#f9d494" d="M 735.5,16.5 C 735.851,19.8116 734.518,22.145 731.5,23.5C 732.468,20.8997 733.801,18.5664 735.5,16.5 Z"/></g>
<g><path style="opacity:0.992" fill="#b7c15b" d="M 477.5,10.5 C 482.881,15.6055 487.548,21.2722 491.5,27.5C 489.511,26.0116 487.678,24.345 486,22.5C 485.586,22.9574 485.086,23.2907 484.5,23.5C 482.275,21.3351 481.109,18.6685 481,15.5C 479.198,14.2107 478.031,12.5441 477.5,10.5 Z"/></g>
<g><path style="opacity:0.804" fill="#9cd0da" d="M 35.5,19.5 C 34.4154,21.5869 32.7488,22.9202 30.5,23.5C 31.5846,21.4131 33.2512,20.0798 35.5,19.5 Z"/></g>
<g><path style="opacity:1" fill="#b66993" d="M 417.5,15.5 C 417.5,17.5 417.5,19.5 417.5,21.5C 416.676,24.7644 416.342,28.0977 416.5,31.5C 416.167,31.5 415.833,31.5 415.5,31.5C 415.376,25.9313 416.043,20.598 417.5,15.5 Z"/></g>
<g><path style="opacity:1" fill="#4fb1c5" d="M 49.5,8.5 C 65.5,8.5 81.5,8.5 97.5,8.5C 97.5,9.16667 97.1667,9.5 96.5,9.5C 80.1531,9.16722 63.8197,9.50055 47.5,10.5C 48.09,11.7989 49.09,12.6322 50.5,13C 47.0667,13.5698 44.0667,14.9031 41.5,17C 36.2833,22.0482 30.6166,26.5482 24.5,30.5C 22.9546,32.5434 21.6213,34.71 20.5,37C 20.6483,38.2559 20.9816,39.4226 21.5,40.5C 19.8333,40.5 18.1667,40.5 16.5,40.5C 16.5,39.1667 16.5,37.8333 16.5,36.5C 16.3284,35.5084 16.6618,34.8417 17.5,34.5C 19.7488,33.9202 21.4154,32.5869 22.5,30.5C 24.5491,27.4503 27.2157,25.117 30.5,23.5C 32.7488,22.9202 34.4154,21.5869 35.5,19.5C 39.0921,16.0159 42.7588,12.5159 46.5,9C 47.448,8.51722 48.448,8.35055 49.5,8.5 Z"/></g>
<g><path style="opacity:1" fill="#e38b5b" d="M 429.5,13.5 C 431.463,14.9599 433.296,16.6266 435,18.5C 437.994,22.9888 441.161,27.3221 444.5,31.5C 437.972,26.6504 432.972,20.6504 429.5,13.5 Z"/></g>
<g><path style="opacity:0.737" fill="#f7d08d" d="M 772.5,18.5 C 769.751,24.3327 766.751,29.9994 763.5,35.5C 764.666,28.8333 767.666,23.1666 772.5,18.5 Z"/></g>
<g><path style="opacity:1" fill="#d69756" d="M 555.5,23.5 C 556.036,26.6981 555.369,29.3647 553.5,31.5C 553.565,28.5718 554.232,25.9052 555.5,23.5 Z"/></g>
<g><path style="opacity:1" fill="#a18bc5" d="M 202.5,13.5 C 203.391,14.1098 204.391,14.4431 205.5,14.5C 216.921,31.0094 228.588,47.3427 240.5,63.5C 240.5,64.8333 240.5,66.1667 240.5,67.5C 238.868,66.0916 237.202,64.5916 235.5,63C 234.451,62.5078 233.451,62.6744 232.5,63.5C 230.94,61.5712 228.94,60.2378 226.5,59.5C 226.29,55.1826 225.957,50.8492 225.5,46.5C 224.168,44.3367 222.334,42.67 220,41.5C 218.498,38.9816 216.998,36.4816 215.5,34C 214.668,33.3123 214.002,33.479 213.5,34.5C 211.687,38.4443 210.187,42.4443 209,46.5C 207.365,47.8486 205.865,47.6819 204.5,46C 205.12,43.5272 205.786,41.0272 206.5,38.5C 207.167,38.8333 207.833,39.1667 208.5,39.5C 211.595,36.8017 211.928,33.9684 209.5,31C 212.481,26.755 211.647,23.255 207,20.5C 205.895,15.3718 204.562,15.3718 203,20.5C 201.224,29.4297 200.058,38.4297 199.5,47.5C 198.5,47.5 197.5,47.5 196.5,47.5C 197.889,35.968 199.889,24.6346 202.5,13.5 Z"/></g>
<g><path style="opacity:1" fill="#7197cc" d="M 79.5,25.5 C 77.1002,28.9031 74.1002,31.5698 70.5,33.5C 72.8998,30.0969 75.8998,27.4302 79.5,25.5 Z"/></g>
<g><path style="opacity:0.996" fill="#f19d9d" d="M 260.5,23.5 C 260.773,29.2161 259.773,34.5494 257.5,39.5C 258.011,33.9506 259.011,28.6173 260.5,23.5 Z"/></g>
<g><path style="opacity:0.604" fill="#a2d5e1" d="M 22.5,30.5 C 21.4154,32.5869 19.7488,33.9202 17.5,34.5C 18.5846,32.4131 20.2512,31.0798 22.5,30.5 Z"/></g>
<g><path style="opacity:0.086" fill="#faf8fc" d="M 240.5,63.5 C 228.588,47.3427 216.921,31.0094 205.5,14.5C 205.573,12.9731 204.906,11.9731 203.5,11.5C 203.196,10.8501 202.863,10.1835 202.5,9.5C 190.167,8.16667 177.833,8.16667 165.5,9.5C 164.319,13.0716 163.652,16.7383 163.5,20.5C 162.454,23.7278 161.788,27.0611 161.5,30.5C 161.5,31.5 161.5,32.5 161.5,33.5C 160.833,34.5 160.167,35.5 159.5,36.5C 160.578,26.8657 162.244,17.3657 164.5,8C 177.829,7.5001 191.163,7.33344 204.5,7.5C 204.351,8.55198 204.517,9.55198 205,10.5C 217.473,27.7936 229.306,45.4603 240.5,63.5 Z"/></g>
<g><path style="opacity:1" fill="#b2c875" d="M 167.5,25.5 C 168.167,25.8333 168.833,26.1667 169.5,26.5C 170.441,28.0495 171.107,29.7162 171.5,31.5C 168.914,30.5134 167.581,28.5134 167.5,25.5 Z"/></g>
<g><path style="opacity:1" fill="#c1da89" d="M 163.5,20.5 C 165.207,21.8726 166.54,23.5393 167.5,25.5C 163.799,24.4524 162.133,26.119 162.5,30.5C 162.167,30.5 161.833,30.5 161.5,30.5C 161.788,27.0611 162.454,23.7278 163.5,20.5 Z"/></g>
<g><path style="opacity:0.97" fill="#928ba1" d="M 203.5,11.5 C 191.844,10.6004 180.178,10.4338 168.5,11C 167.426,11.7387 166.759,12.7387 166.5,14C 168.887,16.4057 168.887,18.9057 166.5,21.5C 168.278,22.7258 169.278,24.3925 169.5,26.5C 168.833,26.1667 168.167,25.8333 167.5,25.5C 166.54,23.5393 165.207,21.8726 163.5,20.5C 163.652,16.7383 164.319,13.0716 165.5,9.5C 177.833,8.16667 190.167,8.16667 202.5,9.5C 202.863,10.1835 203.196,10.8501 203.5,11.5 Z"/></g>
<g><path style="opacity:0.796" fill="#f0beb5" d="M 297.5,29.5 C 297.142,32.6888 296.475,35.6888 295.5,38.5C 295.068,35.1226 295.735,32.1226 297.5,29.5 Z"/></g>
<g><path style="opacity:1" fill="#f6c675" d="M 731.5,23.5 C 731.231,27.4735 730.064,31.1402 728,34.5C 727.329,35.2524 726.496,35.5858 725.5,35.5C 726.992,31.1822 728.992,27.1822 731.5,23.5 Z"/></g>
<g><path style="opacity:1" fill="#a188c8" d="M 240.5,67.5 C 241.5,68.1667 242.5,68.8333 243.5,69.5C 245.522,71.5313 247.189,73.8646 248.5,76.5C 248.427,78.0269 249.094,79.0269 250.5,79.5C 250.5,80.8333 250.5,82.1667 250.5,83.5C 247.143,99.6307 244.143,115.964 241.5,132.5C 241.167,132.5 240.833,132.5 240.5,132.5C 236.239,126.307 232.239,119.974 228.5,113.5C 227.85,111.565 227.517,109.565 227.5,107.5C 226.5,107.5 225.5,107.5 224.5,107.5C 224.167,103.65 222.334,100.65 219,98.5C 216.713,95.1157 217.046,92.1157 220,89.5C 220.667,87.5 220.667,85.5 220,83.5C 218.244,85.3618 216.744,87.3618 215.5,89.5C 213.844,87.5398 212.177,85.5398 210.5,83.5C 209.675,82.6143 208.675,82.281 207.5,82.5C 207.649,81.448 207.483,80.448 207,79.5C 202.681,74.999 199.847,69.6656 198.5,63.5C 197.808,64.0253 197.308,64.6919 197,65.5C 196,63.5 195,61.5 194,59.5C 194.368,55.8671 194.868,52.2005 195.5,48.5C 195.5,47.8333 195.833,47.5 196.5,47.5C 197.5,47.5 198.5,47.5 199.5,47.5C 200.058,38.4297 201.224,29.4297 203,20.5C 204.562,15.3718 205.895,15.3718 207,20.5C 211.647,23.255 212.481,26.755 209.5,31C 211.928,33.9684 211.595,36.8017 208.5,39.5C 207.833,39.1667 207.167,38.8333 206.5,38.5C 205.786,41.0272 205.12,43.5272 204.5,46C 205.865,47.6819 207.365,47.8486 209,46.5C 210.187,42.4443 211.687,38.4443 213.5,34.5C 214.002,33.479 214.668,33.3123 215.5,34C 216.998,36.4816 218.498,38.9816 220,41.5C 222.334,42.67 224.168,44.3367 225.5,46.5C 225.957,50.8492 226.29,55.1826 226.5,59.5C 228.94,60.2378 230.94,61.5712 232.5,63.5C 233.451,62.6744 234.451,62.5078 235.5,63C 237.202,64.5916 238.868,66.0916 240.5,67.5 Z"/></g>
<g><path style="opacity:1" fill="#b9c767" d="M 491.5,27.5 C 499.294,32.9361 500.627,39.6027 495.5,47.5C 495.298,45.0504 495.631,42.717 496.5,40.5C 495.45,35.8577 493.783,31.5244 491.5,27.5 Z"/></g>
<g><path style="opacity:1" fill="#e4825a" d="M 444.5,31.5 C 446.702,33.4114 448.369,35.7447 449.5,38.5C 448.504,38.5858 447.671,38.2524 447,37.5C 446.345,35.3716 445.511,33.3716 444.5,31.5 Z"/></g>
<g><path style="opacity:0.808" fill="#f4d79f" d="M 763.5,35.5 C 763.573,37.0269 762.906,38.0269 761.5,38.5C 761.285,36.8212 761.952,35.8212 763.5,35.5 Z"/></g>
<g><path style="opacity:0.42" fill="#fce5b0" d="M 725.5,35.5 C 725.573,37.0269 724.906,38.0269 723.5,38.5C 723.427,36.9731 724.094,35.9731 725.5,35.5 Z"/></g>
<g><path style="opacity:1" fill="#b2e15a" d="M 167.5,25.5 C 167.581,28.5134 168.914,30.5134 171.5,31.5C 172.338,31.8417 172.672,32.5084 172.5,33.5C 173.433,36.3702 175.1,38.7036 177.5,40.5C 179.326,42.1475 180.66,44.1475 181.5,46.5C 181.028,49.3579 182.028,51.3579 184.5,52.5C 185.321,56.1017 187.155,59.1017 190,61.5C 190.167,63.6667 190.333,65.8333 190.5,68C 189.262,79.021 187.429,89.8544 185,100.5C 184.501,104.152 184.335,107.818 184.5,111.5C 182.925,114.529 181.759,117.862 181,121.5C 180.502,124.817 180.335,128.15 180.5,131.5C 168.867,132.603 157.2,132.769 145.5,132C 147.287,120.179 149.454,108.346 152,96.5C 152.651,90.1732 153.151,83.8399 153.5,77.5C 153.5,76.8333 153.5,76.1667 153.5,75.5C 156.265,67.7849 158.431,59.7849 160,51.5C 161.153,44.5248 161.987,37.5248 162.5,30.5C 162.133,26.119 163.799,24.4524 167.5,25.5 Z"/></g>
<g><path style="opacity:1" fill="#b0c780" d="M 172.5,33.5 C 174.579,34.7956 176.246,36.4622 177.5,38.5C 177.5,39.1667 177.5,39.8333 177.5,40.5C 175.1,38.7036 173.433,36.3702 172.5,33.5 Z"/></g>
<g><path style="opacity:0.98" fill="#f07975" d="M 632.5,13.5 C 632.5,15.1667 632.5,16.8333 632.5,18.5C 632.634,20.2915 632.301,21.9582 631.5,23.5C 630.01,27.942 629.01,32.6086 628.5,37.5C 603.728,39.4758 578.728,40.1424 553.5,39.5C 553.5,36.8333 553.5,34.1667 553.5,31.5C 555.369,29.3647 556.036,26.6981 555.5,23.5C 555.232,21.901 555.566,20.5676 556.5,19.5C 555.963,24.7388 556.63,29.7388 558.5,34.5C 557.311,35.4287 555.978,35.762 554.5,35.5C 554.5,36.5 554.5,37.5 554.5,38.5C 578.5,38.5 602.5,38.5 626.5,38.5C 627.613,29.7665 629.613,21.4332 632.5,13.5 Z"/></g>
<g><path style="opacity:0.764" fill="#9e93bd" d="M 137.5,20.5 C 136.716,27.2013 135.716,33.868 134.5,40.5C 119.833,40.5 105.167,40.5 90.5,40.5C 81.4325,40.7878 72.4325,40.7878 63.5,40.5C 64.8333,37.1667 67.1667,34.8333 70.5,33.5C 69.0401,35.4628 67.3734,37.2962 65.5,39C 88.1642,39.5 110.831,39.6666 133.5,39.5C 133.45,34.4482 133.95,29.4482 135,24.5C 135.122,22.563 135.955,21.2297 137.5,20.5 Z"/></g>
<g><path style="opacity:0.498" fill="#d6f1a8" d="M 161.5,33.5 C 161.59,36.1522 160.924,38.4855 159.5,40.5C 159.5,39.1667 159.5,37.8333 159.5,36.5C 160.167,35.5 160.833,34.5 161.5,33.5 Z"/></g>
<g><path style="opacity:0.687" fill="#de8b8a" d="M 449.5,38.5 C 450.5,38.8333 451.167,39.5 451.5,40.5C 439.167,40.5 426.833,40.5 414.5,40.5C 414.5,39.8333 414.833,39.5 415.5,39.5C 427.012,39.8281 438.346,39.4948 449.5,38.5 Z"/></g>
<g><path style="opacity:0.696" fill="#e28b88" d="M 628.5,37.5 C 628.5,38.5 628.5,39.5 628.5,40.5C 603.5,40.5 578.5,40.5 553.5,40.5C 553.5,40.1667 553.5,39.8333 553.5,39.5C 578.728,40.1424 603.728,39.4758 628.5,37.5 Z"/></g>
<g><path style="opacity:0.21" fill="#f4fce2" d="M 159.5,36.5 C 159.5,37.8333 159.5,39.1667 159.5,40.5C 159.169,47.1595 157.836,53.4928 155.5,59.5C 156.313,51.618 157.646,43.9513 159.5,36.5 Z"/></g>
<g><path style="opacity:0.255" fill="#feefea" d="M 631.5,23.5 C 631.689,29.2804 631.022,34.9471 629.5,40.5C 604.175,41.4998 578.842,41.8331 553.5,41.5C 553.795,43.7354 553.461,45.7354 552.5,47.5C 552.5,45.1667 552.5,42.8333 552.5,40.5C 552.833,40.5 553.167,40.5 553.5,40.5C 578.5,40.5 603.5,40.5 628.5,40.5C 628.5,39.5 628.5,38.5 628.5,37.5C 629.01,32.6086 630.01,27.942 631.5,23.5 Z"/></g>
<g><path style="opacity:1" fill="#34c5d8" d="M 16.5,40.5 C 18.1667,40.5 19.8333,40.5 21.5,40.5C 33.1667,40.5 44.8333,40.5 56.5,40.5C 56.5,41.8333 56.5,43.1667 56.5,44.5C 55.448,44.3505 54.448,44.5172 53.5,45C 51.6153,47.3825 49.2819,49.2159 46.5,50.5C 46.7093,51.086 47.0426,51.586 47.5,52C 44.9096,53.4451 42.243,54.6118 39.5,55.5C 39.5,56.8333 39.5,58.1667 39.5,59.5C 39.1667,60.5 38.5,61.1667 37.5,61.5C 36.3754,60.9859 35.2087,60.6526 34,60.5C 33.5172,61.448 33.3505,62.448 33.5,63.5C 32.1667,63.5 30.8333,63.5 29.5,63.5C 29.5,64.8333 29.5,66.1667 29.5,67.5C 28.0222,67.238 26.6888,67.5713 25.5,68.5C 26.5498,69.4288 26.5498,70.0954 25.5,70.5C 24.6018,66.9473 22.2685,65.2806 18.5,65.5C 17.1667,62.1667 15.8333,58.8333 14.5,55.5C 15.4865,50.6804 16.1532,45.6804 16.5,40.5 Z"/></g>
<g><path style="opacity:1" fill="#b3e159" d="M 515.5,37.5 C 515.833,37.5 516.167,37.5 516.5,37.5C 516.5,38.5 516.5,39.5 516.5,40.5C 528.167,40.5 539.833,40.5 551.5,40.5C 551.084,45.4932 550.751,50.4932 550.5,55.5C 550.167,55.5 549.833,55.5 549.5,55.5C 549.167,55.5 548.833,55.5 548.5,55.5C 537.252,55.8207 526.085,55.4874 515,54.5C 513.308,57.7397 512.141,61.0731 511.5,64.5C 511.5,63.1667 511.5,61.8333 511.5,60.5C 512.167,56.8333 512.833,53.1667 513.5,49.5C 514.222,49.0825 514.722,48.4158 515,47.5C 515.497,44.854 515.664,42.1873 515.5,39.5C 515.5,38.8333 515.5,38.1667 515.5,37.5 Z"/></g>
<g><path style="opacity:0.557" fill="#fad8a4" d="M 723.5,38.5 C 723.771,40.3797 723.104,41.713 721.5,42.5C 721.66,40.847 722.326,39.5137 723.5,38.5 Z"/></g>
<g><path style="opacity:1" fill="#8b8b8e" d="M 177.5,38.5 C 178.5,38.5 179.5,38.5 180.5,38.5C 181.03,41.6819 182.03,44.6819 183.5,47.5C 182.833,47.1667 182.167,46.8333 181.5,46.5C 180.66,44.1475 179.326,42.1475 177.5,40.5C 177.5,39.8333 177.5,39.1667 177.5,38.5 Z"/></g>
<g><path style="opacity:1" fill="#a188c8" d="M 378.5,40.5 C 390.167,40.5 401.833,40.5 413.5,40.5C 409.671,65.3057 405.338,89.9723 400.5,114.5C 398.577,118.029 397.911,122.029 398.5,126.5C 397.5,126.5 396.5,126.5 395.5,126.5C 395.509,124.692 395.009,123.025 394,121.5C 393.223,124.429 393.39,127.263 394.5,130C 393.672,130.915 392.672,131.581 391.5,132C 382.833,132.667 374.167,132.667 365.5,132C 364.333,131.5 363.5,130.667 363,129.5C 362.503,126.854 362.336,124.187 362.5,121.5C 363.585,110.866 365.585,100.532 368.5,90.5C 370.045,89.7703 370.878,88.437 371,86.5C 371.49,76.893 373.156,67.5597 376,58.5C 376.271,52.2793 377.104,46.2793 378.5,40.5 Z"/></g>
<g><path style="opacity:1" fill="#b1e059" d="M 452.5,40.5 C 467.167,40.5 481.833,40.5 496.5,40.5C 495.631,42.717 495.298,45.0504 495.5,47.5C 495.5,49.1667 495.5,50.8333 495.5,52.5C 494.015,54.2488 493.015,56.2488 492.5,58.5C 487.808,62.5293 483.142,66.5293 478.5,70.5C 478.167,70.5 477.833,70.5 477.5,70.5C 473.747,65.2635 470.247,59.9302 467,54.5C 465.67,53.4178 464.17,52.7512 462.5,52.5C 458.82,48.817 455.486,44.817 452.5,40.5 Z"/></g>
<g><path style="opacity:0.124" fill="#fafde1" d="M 491.5,82.5 C 491.5,81.5 491.5,80.5 491.5,79.5C 492.94,70.523 494.274,61.523 495.5,52.5C 495.5,50.8333 495.5,49.1667 495.5,47.5C 500.627,39.6027 499.294,32.9361 491.5,27.5C 487.548,21.2722 482.881,15.6055 477.5,10.5C 477.389,9.88258 477.056,9.38258 476.5,9C 459.503,8.50006 442.503,8.3334 425.5,8.5C 425.167,8.5 424.833,8.5 424.5,8.5C 424.5,8.16667 424.5,7.83333 424.5,7.5C 433.271,7.40277 442.104,7.06944 451,6.5C 460.394,7.08424 469.728,7.75091 479,8.5C 485.426,17.0159 492.093,25.3492 499,33.5C 497.784,50.1198 495.284,66.4531 491.5,82.5 Z"/></g>
<g><path style="opacity:0.981" fill="#bbde78" d="M 161.5,30.5 C 161.833,30.5 162.167,30.5 162.5,30.5C 161.987,37.5248 161.153,44.5248 160,51.5C 158.431,59.7849 156.265,67.7849 153.5,75.5C 154.968,70.2861 155.635,64.9528 155.5,59.5C 157.836,53.4928 159.169,47.1595 159.5,40.5C 160.924,38.4855 161.59,36.1522 161.5,33.5C 161.5,32.5 161.5,31.5 161.5,30.5 Z"/></g>
<g><path style="opacity:0.973" fill="#71cdd8" d="M 62.5,40.5 C 55.1302,47.2041 47.4636,53.5374 39.5,59.5C 39.5,58.1667 39.5,56.8333 39.5,55.5C 42.243,54.6118 44.9096,53.4451 47.5,52C 47.0426,51.586 46.7093,51.086 46.5,50.5C 49.2819,49.2159 51.6153,47.3825 53.5,45C 54.448,44.5172 55.448,44.3505 56.5,44.5C 56.5,43.1667 56.5,41.8333 56.5,40.5C 58.6119,39.7249 60.6119,39.7249 62.5,40.5 Z"/></g>
<g><path style="opacity:1" fill="#8e879a" d="M 192.5,59.5 C 190.833,58.1667 189.167,56.8333 187.5,55.5C 187.5,55.1667 187.5,54.8333 187.5,54.5C 186.167,52.1667 184.833,49.8333 183.5,47.5C 184.583,47.4606 185.583,47.1272 186.5,46.5C 187.333,47.5 188.167,48.5 189,49.5C 188.805,51.1261 188.805,52.7928 189,54.5C 190.802,55.7893 191.969,57.4559 192.5,59.5 Z"/></g>
<g><path style="opacity:0.678" fill="#c7e391" d="M 515.5,39.5 C 515.664,42.1873 515.497,44.854 515,47.5C 514.722,48.4158 514.222,49.0825 513.5,49.5C 513.549,45.9219 514.215,42.5885 515.5,39.5 Z"/></g>
<g><path style="opacity:1" fill="#b2cd76" d="M 181.5,46.5 C 182.167,46.8333 182.833,47.1667 183.5,47.5C 184.833,49.8333 186.167,52.1667 187.5,54.5C 186.5,53.8333 185.5,53.1667 184.5,52.5C 182.028,51.3579 181.028,49.3579 181.5,46.5 Z"/></g>
<g><path style="opacity:1" fill="#f7d396" d="M 761.5,39.5 C 758.644,45.8893 755.311,51.8893 751.5,57.5C 752.945,52.6088 754.945,47.9421 757.5,43.5C 758.409,41.6253 759.743,40.292 761.5,39.5 Z"/></g>
<g><path style="opacity:1" fill="#7acfd9" d="M 16.5,36.5 C 16.5,37.8333 16.5,39.1667 16.5,40.5C 16.1532,45.6804 15.4865,50.6804 14.5,55.5C 13.8333,56.1667 13.1667,56.8333 12.5,57.5C 13.3447,50.2819 14.6781,43.2819 16.5,36.5 Z"/></g>
<g><path style="opacity:0.529" fill="#fac7c9" d="M 255.5,51.5 C 255.784,53.4147 255.451,55.0813 254.5,56.5C 254.062,56.5654 253.728,56.3988 253.5,56C 254.099,54.3775 254.766,52.8775 255.5,51.5 Z"/></g>
<g><path style="opacity:0.888" fill="#f8c265" d="M 549.5,55.5 C 549.833,55.5 550.167,55.5 550.5,55.5C 568.833,55.5 587.167,55.5 605.5,55.5C 604.796,63.7224 603.463,71.7224 601.5,79.5C 601.927,72.4679 602.594,65.4679 603.5,58.5C 585.85,57.6189 568.183,57.2856 550.5,57.5C 550.795,59.7354 550.461,61.7354 549.5,63.5C 549.5,60.8333 549.5,58.1667 549.5,55.5 Z"/></g>
<g><path style="opacity:1" fill="#f08081" d="M 257.5,40.5 C 257.022,48.1629 256.522,55.8296 256,63.5C 255.617,64.056 255.117,64.3893 254.5,64.5C 254.5,62.1667 254.5,59.8333 254.5,57.5C 254.5,57.1667 254.5,56.8333 254.5,56.5C 255.451,55.0813 255.784,53.4147 255.5,51.5C 255.646,47.6125 256.313,43.9458 257.5,40.5 Z"/></g>
<g><path style="opacity:1" fill="#b1d236" d="M 548.5,55.5 C 547.822,64.9166 546.822,74.2499 545.5,83.5C 544.5,83.5 543.5,83.5 542.5,83.5C 531.5,83.5 520.5,83.5 509.5,83.5C 509.5,82.1667 509.5,80.8333 509.5,79.5C 510.4,74.6678 511.066,69.6678 511.5,64.5C 512.141,61.0731 513.308,57.7397 515,54.5C 526.085,55.4874 537.252,55.8207 548.5,55.5 Z"/></g>
<g><path style="opacity:1" fill="#feb945" d="M 601.5,79.5 C 600.596,80.209 600.263,81.209 600.5,82.5C 582.5,82.5 564.5,82.5 546.5,82.5C 547.283,76.1444 548.283,69.811 549.5,63.5C 550.461,61.7354 550.795,59.7354 550.5,57.5C 568.183,57.2856 585.85,57.6189 603.5,58.5C 602.594,65.4679 601.927,72.4679 601.5,79.5 Z"/></g>
<g><path style="opacity:0.988" fill="#b8dd75" d="M 462.5,52.5 C 464.17,52.7512 465.67,53.4178 467,54.5C 470.247,59.9302 473.747,65.2635 477.5,70.5C 477.167,70.5 476.833,70.5 476.5,70.5C 471.451,64.7861 466.785,58.7861 462.5,52.5 Z"/></g>
<g><path style="opacity:0.016" fill="#d3f9fa" d="M 641.5,53.5 C 642.913,56.2186 643.58,59.2186 643.5,62.5C 642.087,59.7814 641.42,56.7814 641.5,53.5 Z"/></g>
<g><path style="opacity:1" fill="#f7c471" d="M 719.5,46.5 C 719.66,48.1992 719.494,49.8659 719,51.5C 715.741,59.0083 711.741,66.0083 707,72.5C 706.51,73.7932 706.343,75.1266 706.5,76.5C 705.5,76.5 704.5,76.5 703.5,76.5C 703.5,76.1667 703.5,75.8333 703.5,75.5C 708.595,65.6376 713.929,55.971 719.5,46.5 Z"/></g>
<g><path style="opacity:0.761" fill="#9f90bd" d="M 74.5,62.5 C 94.1667,62.5 113.833,62.5 133.5,62.5C 132.791,63.404 131.791,63.7373 130.5,63.5C 112.21,63.7297 93.8762,63.7297 75.5,63.5C 76.1144,68.0319 75.1144,72.0319 72.5,75.5C 72.8437,71.1055 73.5103,66.7722 74.5,62.5 Z"/></g>
<g><path style="opacity:1" fill="#b380b2" d="M 133.5,62.5 C 134.167,62.5 134.833,62.5 135.5,62.5C 135.5,63.1667 135.5,63.8333 135.5,64.5C 131.978,67.7498 128.311,70.7498 124.5,73.5C 124.167,73.5 123.833,73.5 123.5,73.5C 123.714,71.8561 123.38,70.3561 122.5,69C 124.92,69.9881 127.253,69.6548 129.5,68C 130.38,66.6439 130.714,65.1439 130.5,63.5C 131.791,63.7373 132.791,63.404 133.5,62.5 Z"/></g>
<g><path style="opacity:1" fill="#b2d237" d="M 492.5,58.5 C 491.833,64.5 491.167,70.5 490.5,76.5C 489.85,76.1961 489.183,75.8627 488.5,75.5C 487.23,76.5622 486.063,77.5622 485,78.5C 482.614,75.9222 480.447,73.2556 478.5,70.5C 483.142,66.5293 487.808,62.5293 492.5,58.5 Z"/></g>
<g><path style="opacity:1" fill="#74d1dc" d="M 37.5,61.5 C 33.8604,64.4729 30.5271,67.8062 27.5,71.5C 26.8333,71.5 26.1667,71.5 25.5,71.5C 25.5,71.1667 25.5,70.8333 25.5,70.5C 26.5498,70.0954 26.5498,69.4288 25.5,68.5C 26.6888,67.5713 28.0222,67.238 29.5,67.5C 29.5,66.1667 29.5,64.8333 29.5,63.5C 30.8333,63.5 32.1667,63.5 33.5,63.5C 33.3505,62.448 33.5172,61.448 34,60.5C 35.2087,60.6526 36.3754,60.9859 37.5,61.5 Z"/></g>
<g><path style="opacity:1" fill="#a188c8" d="M 130.5,63.5 C 130.714,65.1439 130.38,66.6439 129.5,68C 127.253,69.6548 124.92,69.9881 122.5,69C 123.38,70.3561 123.714,71.8561 123.5,73.5C 120.916,76.2519 117.916,78.4186 114.5,80C 112.859,81.129 111.859,82.629 111.5,84.5C 110.455,85.8776 109.122,86.8776 107.5,87.5C 104.863,89.491 102.196,91.491 99.5,93.5C 92.8333,93.5 86.1667,93.5 79.5,93.5C 77.3926,92.5318 75.0593,92.1984 72.5,92.5C 72.5,87.1667 72.5,81.8333 72.5,76.5C 72.5,76.1667 72.5,75.8333 72.5,75.5C 75.1144,72.0319 76.1144,68.0319 75.5,63.5C 93.8762,63.7297 112.21,63.7297 130.5,63.5 Z"/></g>
<g><path style="opacity:1" fill="#f29e9f" d="M 254.5,57.5 C 254.5,59.8333 254.5,62.1667 254.5,64.5C 253.79,66.7463 253.29,69.0796 253,71.5C 252.617,72.056 252.117,72.3893 251.5,72.5C 252.139,67.3039 253.139,62.3039 254.5,57.5 Z"/></g>
<g><path style="opacity:1" fill="#f49d9c" d="M 295.5,39.5 C 293.914,50.3658 291.914,61.0325 289.5,71.5C 289.768,69.901 289.434,68.5676 288.5,67.5C 289.664,62.8432 290.831,58.1765 292,53.5C 292.498,50.1832 292.665,46.8499 292.5,43.5C 293.857,42.4097 294.857,41.0764 295.5,39.5 Z"/></g>
<g><path style="opacity:0.922" fill="#c9bed9" d="M 240.5,63.5 C 241.492,65.4561 242.492,67.4561 243.5,69.5C 242.5,68.8333 241.5,68.1667 240.5,67.5C 240.5,66.1667 240.5,64.8333 240.5,63.5 Z"/></g>
<g><path style="opacity:0.133" fill="#f9fde4" d="M 509.5,65.5 C 508.573,72.4721 507.906,79.4721 507.5,86.5C 507.5,86.8333 507.5,87.1667 507.5,87.5C 505.538,92.5472 504.204,97.8806 503.5,103.5C 503.5,104.5 503.5,105.5 503.5,106.5C 502.833,108.167 502.167,109.833 501.5,111.5C 503.538,95.9321 506.205,80.5988 509.5,65.5 Z"/></g>
<g><path style="opacity:0.851" fill="#d46b79" d="M 135.5,62.5 C 138.167,62.5 140.833,62.5 143.5,62.5C 142.528,69.3616 141.194,76.0282 139.5,82.5C 140.074,76.5164 140.407,70.5164 140.5,64.5C 138.833,64.5 137.167,64.5 135.5,64.5C 135.5,63.8333 135.5,63.1667 135.5,62.5 Z"/></g>
<g><path style="opacity:0.173" fill="#f5fee4" d="M 155.5,59.5 C 155.635,64.9528 154.968,70.2861 153.5,75.5C 153.5,76.1667 153.5,76.8333 153.5,77.5C 152.833,78.8333 152.167,80.1667 151.5,81.5C 152.216,73.9287 153.55,66.5954 155.5,59.5 Z"/></g>
<g><path style="opacity:0.998" fill="#bbd45f" d="M 495.5,52.5 C 494.274,61.523 492.94,70.523 491.5,79.5C 491.167,79.5 490.833,79.5 490.5,79.5C 490.5,78.5 490.5,77.5 490.5,76.5C 491.167,70.5 491.833,64.5 492.5,58.5C 493.015,56.2488 494.015,54.2488 495.5,52.5 Z"/></g>
<g><path style="opacity:0.541" fill="#caeff4" d="M 643.5,66.5 C 644.117,66.6107 644.617,66.944 645,67.5C 645.495,69.4727 645.662,71.4727 645.5,73.5C 644.388,71.4006 643.721,69.0673 643.5,66.5 Z"/></g>
<g><path style="opacity:0.525" fill="#c2d893" d="M 187.5,55.5 C 189.167,56.8333 190.833,58.1667 192.5,59.5C 192.833,60.8333 193.167,62.1667 193.5,63.5C 193.5,64.8333 193.5,66.1667 193.5,67.5C 192.833,68.8333 192.167,70.1667 191.5,71.5C 191.38,69.2655 191.713,67.0989 192.5,65C 191.431,61.4541 189.764,58.2874 187.5,55.5 Z"/></g>
<g><path style="opacity:1" fill="#e0c340" d="M 548.5,55.5 C 548.833,55.5 549.167,55.5 549.5,55.5C 549.5,58.1667 549.5,60.8333 549.5,63.5C 548.283,69.811 547.283,76.1444 546.5,82.5C 546.5,82.8333 546.5,83.1667 546.5,83.5C 546.167,83.5 545.833,83.5 545.5,83.5C 546.822,74.2499 547.822,64.9166 548.5,55.5 Z"/></g>
<g><path style="opacity:1" fill="#42b8b0" d="M 14.5,55.5 C 15.8333,58.8333 17.1667,62.1667 18.5,65.5C 22.2685,65.2806 24.6018,66.9473 25.5,70.5C 25.5,70.8333 25.5,71.1667 25.5,71.5C 22.8395,72.8271 20.8395,74.8271 19.5,77.5C 17.9731,77.427 16.9731,78.0937 16.5,79.5C 14.2512,80.0798 12.5846,81.4131 11.5,83.5C 10.5041,83.4142 9.67076,83.7476 9,84.5C 8.53566,83.9056 8.36899,83.2389 8.5,82.5C 9.57753,74.1145 10.9109,65.7812 12.5,57.5C 13.1667,56.8333 13.8333,56.1667 14.5,55.5 Z"/></g>
<g><path style="opacity:1" fill="#e9c473" d="M 25.5,71.5 C 26.1667,71.5 26.8333,71.5 27.5,71.5C 28.5,73.5 29.5,75.5 30.5,77.5C 28.8174,76.3393 26.984,75.3393 25,74.5C 23.3168,75.848 21.4835,76.848 19.5,77.5C 20.8395,74.8271 22.8395,72.8271 25.5,71.5 Z"/></g>
<g><path style="opacity:1" fill="#f29091" d="M 288.5,67.5 C 289.434,68.5676 289.768,69.901 289.5,71.5C 288.804,79.6402 287.471,87.6402 285.5,95.5C 285.167,95.5 284.833,95.5 284.5,95.5C 285.614,86.1392 286.947,76.8058 288.5,67.5 Z"/></g>
<g><path style="opacity:1" fill="#bbdf76" d="M 184.5,52.5 C 185.5,53.1667 186.5,53.8333 187.5,54.5C 187.5,54.8333 187.5,55.1667 187.5,55.5C 189.764,58.2874 191.431,61.4541 192.5,65C 191.713,67.0989 191.38,69.2655 191.5,71.5C 189.952,85.0893 187.619,98.4226 184.5,111.5C 184.335,107.818 184.501,104.152 185,100.5C 187.429,89.8544 189.262,79.021 190.5,68C 190.333,65.8333 190.167,63.6667 190,61.5C 187.155,59.1017 185.321,56.1017 184.5,52.5 Z"/></g>
<g><path style="opacity:0.067" fill="#fdf9e0" d="M 551.5,40.5 C 551.833,40.5 552.167,40.5 552.5,40.5C 552.5,42.8333 552.5,45.1667 552.5,47.5C 552.682,49.5914 552.348,51.5914 551.5,53.5C 570.155,54.4996 588.821,54.8329 607.5,54.5C 606.482,64.6084 604.815,74.6084 602.5,84.5C 583.842,85.333 565.176,85.833 546.5,86C 545.446,90.4918 544.446,94.9918 543.5,99.5C 542.596,100.209 542.263,101.209 542.5,102.5C 542.167,102.5 541.833,102.5 541.5,102.5C 542.726,96.1452 544.059,89.8118 545.5,83.5C 545.833,83.5 546.167,83.5 546.5,83.5C 564.833,83.5 583.167,83.5 601.5,83.5C 601.5,82.1667 601.5,80.8333 601.5,79.5C 603.463,71.7224 604.796,63.7224 605.5,55.5C 587.167,55.5 568.833,55.5 550.5,55.5C 550.751,50.4932 551.084,45.4932 551.5,40.5 Z"/></g>
<g><path style="opacity:1" fill="#bdcd43" d="M 477.5,70.5 C 477.833,70.5 478.167,70.5 478.5,70.5C 480.447,73.2556 482.614,75.9222 485,78.5C 486.063,77.5622 487.23,76.5622 488.5,75.5C 489.183,75.8627 489.85,76.1961 490.5,76.5C 490.5,77.5 490.5,78.5 490.5,79.5C 490.829,82.2282 490.163,84.5615 488.5,86.5C 486.157,81.1337 482.49,76.8004 477.5,73.5C 477.5,72.5 477.5,71.5 477.5,70.5 Z"/></g>
<g><path style="opacity:0.976" fill="#c0d66d" d="M 511.5,60.5 C 511.5,61.8333 511.5,63.1667 511.5,64.5C 511.066,69.6678 510.4,74.6678 509.5,79.5C 508.833,81.8333 508.167,84.1667 507.5,86.5C 507.906,79.4721 508.573,72.4721 509.5,65.5C 509.5,65.1667 509.5,64.8333 509.5,64.5C 510.167,63.1667 510.833,61.8333 511.5,60.5 Z"/></g>
<g><path style="opacity:1" fill="#f7ca7c" d="M 751.5,57.5 C 743.005,74.4934 734.005,91.16 724.5,107.5C 724.36,103.119 725.86,99.4528 729,96.5C 729.495,94.5273 729.662,92.5273 729.5,90.5C 730.5,90.5 731.5,90.5 732.5,90.5C 734.297,86.9063 736.13,83.2397 738,79.5C 738.49,78.2068 738.657,76.8734 738.5,75.5C 739.5,75.5 740.5,75.5 741.5,75.5C 742.159,72.5448 742.492,69.5448 742.5,66.5C 743.822,66.67 744.989,66.3366 746,65.5C 746.986,63.2222 747.82,60.8889 748.5,58.5C 749.325,57.6143 750.325,57.281 751.5,57.5 Z"/></g>
<g><path style="opacity:1" fill="#6dccd8" d="M 679.5,49.5 C 682.117,59.9256 684.117,70.5923 685.5,81.5C 683.588,80.0199 682.421,78.0199 682,75.5C 680.367,66.9051 679.534,58.2384 679.5,49.5 Z"/></g>
<g><path style="opacity:1" fill="#d2c273" d="M 19.5,77.5 C 19.0269,78.9063 18.0269,79.573 16.5,79.5C 16.9731,78.0937 17.9731,77.427 19.5,77.5 Z"/></g>
<g><path style="opacity:1" fill="#fdb946" d="M 30.5,77.5 C 31.0798,79.7488 32.4131,81.4154 34.5,82.5C 35.1667,82.5 35.5,82.8333 35.5,83.5C 36.4735,86.135 38.1402,88.135 40.5,89.5C 40.7376,91.4044 41.7376,92.7377 43.5,93.5C 43.3433,94.8734 43.51,96.2068 44,97.5C 46.9562,99.7221 49.7895,102.055 52.5,104.5C 54.7955,108.766 57.7955,112.433 61.5,115.5C 62.4194,118.089 64.086,120.089 66.5,121.5C 66.5,121.833 66.5,122.167 66.5,122.5C 66.5,122.833 66.5,123.167 66.5,123.5C 61.7212,125.891 57.7212,129.224 54.5,133.5C 54.1667,133.5 53.8333,133.5 53.5,133.5C 44.1667,133.5 34.8333,133.5 25.5,133.5C 25.5123,130.858 24.179,129.525 21.5,129.5C 21.5,129.167 21.5,128.833 21.5,128.5C 21.5123,125.858 20.179,124.525 17.5,124.5C 17.5,124.167 17.5,123.833 17.5,123.5C 16.888,119.905 14.888,117.572 11.5,116.5C 10.5899,112.935 8.58986,110.268 5.5,108.5C 5.5,106.167 5.5,103.833 5.5,101.5C 5.5,100.167 5.5,98.8333 5.5,97.5C 6.22158,97.0825 6.72158,96.4158 7,95.5C 7.49742,92.854 7.66409,90.1873 7.5,87.5C 9.16667,86.5 10.5,85.1667 11.5,83.5C 13.7488,82.9202 15.4154,81.5869 16.5,79.5C 18.0269,79.573 19.0269,78.9063 19.5,77.5C 21.4835,76.848 23.3168,75.848 25,74.5C 26.984,75.3393 28.8174,76.3393 30.5,77.5 Z"/></g>
<g><path style="opacity:0.961" fill="#f9d494" d="M 30.5,77.5 C 32.5869,78.5846 33.9202,80.2512 34.5,82.5C 32.4131,81.4154 31.0798,79.7488 30.5,77.5 Z"/></g>
<g><path style="opacity:0.439" fill="#eac5d4" d="M 251.5,74.5 C 251.5,76.1667 251.5,77.8333 251.5,79.5C 251.167,79.5 250.833,79.5 250.5,79.5C 249.094,79.0269 248.427,78.0269 248.5,76.5C 249.117,76.6107 249.617,76.944 250,77.5C 250.232,76.2625 250.732,75.2625 251.5,74.5 Z"/></g>
<g><path style="opacity:0.498" fill="#fbe1b5" d="M 703.5,75.5 C 703.5,75.8333 703.5,76.1667 703.5,76.5C 703.573,78.0269 702.906,79.0269 701.5,79.5C 701.66,77.847 702.326,76.5137 703.5,75.5 Z"/></g>
<g><path style="opacity:1" fill="#ea5866" d="M 135.5,64.5 C 137.167,64.5 138.833,64.5 140.5,64.5C 140.407,70.5164 140.074,76.5164 139.5,82.5C 139.5,83.5 139.5,84.5 139.5,85.5C 137.769,88.0708 136.769,91.0708 136.5,94.5C 124.117,94.2062 111.783,94.5396 99.5,95.5C 99.8333,94.8333 100.167,94.1667 100.5,93.5C 103.855,92.6608 106.188,90.6608 107.5,87.5C 109.122,86.8776 110.455,85.8776 111.5,84.5C 116.687,81.9904 121.021,78.3237 124.5,73.5C 128.311,70.7498 131.978,67.7498 135.5,64.5 Z"/></g>
<g><path style="opacity:1" fill="#f4c162" d="M 476.5,70.5 C 476.833,70.5 477.167,70.5 477.5,70.5C 477.5,71.5 477.5,72.5 477.5,73.5C 474.734,76.1637 472.067,78.997 469.5,82C 467.913,82.8624 466.246,83.5291 464.5,84C 461.134,87.3349 457.468,90.1682 453.5,92.5C 459.677,86.1592 466.344,80.3259 473.5,75C 475.141,73.871 476.141,72.371 476.5,70.5 Z"/></g>
<g><path style="opacity:1" fill="#cc6a8e" d="M 123.5,73.5 C 123.833,73.5 124.167,73.5 124.5,73.5C 121.021,78.3237 116.687,81.9904 111.5,84.5C 111.859,82.629 112.859,81.129 114.5,80C 117.916,78.4186 120.916,76.2519 123.5,73.5 Z"/></g>
<g><path style="opacity:1" fill="#bac075" d="M 16.5,79.5 C 15.4154,81.5869 13.7488,82.9202 11.5,83.5C 12.5846,81.4131 14.2512,80.0798 16.5,79.5 Z"/></g>
<g><path style="opacity:0.768" fill="#edba63" d="M 601.5,79.5 C 601.5,80.8333 601.5,82.1667 601.5,83.5C 583.167,83.5 564.833,83.5 546.5,83.5C 546.5,83.1667 546.5,82.8333 546.5,82.5C 564.5,82.5 582.5,82.5 600.5,82.5C 600.263,81.209 600.596,80.209 601.5,79.5 Z"/></g>
<g><path style="opacity:1" fill="#a18dc3" d="M 207.5,82.5 C 208.675,82.281 209.675,82.6143 210.5,83.5C 212.177,85.5398 213.844,87.5398 215.5,89.5C 216.744,87.3618 218.244,85.3618 220,83.5C 220.667,85.5 220.667,87.5 220,89.5C 217.046,92.1157 216.713,95.1157 219,98.5C 222.334,100.65 224.167,103.65 224.5,107.5C 225.5,107.5 226.5,107.5 227.5,107.5C 227.517,109.565 227.85,111.565 228.5,113.5C 220.76,103.694 213.76,93.3605 207.5,82.5 Z"/></g>
<g><path style="opacity:1" fill="#a391c1" d="M 378.5,31.5 C 378.5,34.5 378.5,37.5 378.5,40.5C 377.104,46.2793 376.271,52.2793 376,58.5C 373.156,67.5597 371.49,76.893 371,86.5C 370.878,88.437 370.045,89.7703 368.5,90.5C 371.071,70.5867 374.404,50.9201 378.5,31.5 Z"/></g>
<g><path style="opacity:0.945" fill="#f8d49b" d="M 35.5,83.5 C 37.914,84.9108 39.5806,86.9108 40.5,89.5C 38.1402,88.135 36.4735,86.135 35.5,83.5 Z"/></g>
<g><path style="opacity:1" fill="#b2e159" d="M 509.5,79.5 C 509.5,80.8333 509.5,82.1667 509.5,83.5C 520.5,83.5 531.5,83.5 542.5,83.5C 541.486,87.9406 539.82,92.2739 537.5,96.5C 539.571,97.9759 540.571,99.9759 540.5,102.5C 529.167,102.5 517.833,102.5 506.5,102.5C 506.5,101.167 506.5,99.8333 506.5,98.5C 507.244,94.8815 507.577,91.2148 507.5,87.5C 507.5,87.1667 507.5,86.8333 507.5,86.5C 508.167,84.1667 508.833,81.8333 509.5,79.5 Z"/></g>
<g><path style="opacity:0.545" fill="#dad0a0" d="M 8.5,82.5 C 8.36899,83.2389 8.53566,83.9056 9,84.5C 9.67076,83.7476 10.5041,83.4142 11.5,83.5C 10.5,85.1667 9.16667,86.5 7.5,87.5C 7.21552,85.5853 7.54885,83.9187 8.5,82.5 Z"/></g>
<g><path style="opacity:1" fill="#c36b91" d="M 250.5,79.5 C 250.833,79.5 251.167,79.5 251.5,79.5C 255.334,84.497 258.667,89.8303 261.5,95.5C 257.72,92.6287 254.887,88.962 253,84.5C 252.329,83.7476 251.496,83.4142 250.5,83.5C 250.5,82.1667 250.5,80.8333 250.5,79.5 Z"/></g>
<g><path style="opacity:1" fill="#fdba46" d="M 477.5,73.5 C 482.49,76.8004 486.157,81.1337 488.5,86.5C 488.415,93.6782 487.248,100.678 485,107.5C 476.292,114.716 467.792,122.049 459.5,129.5C 457.804,129.685 456.471,130.519 455.5,132C 439.833,132.667 424.167,132.667 408.5,132C 411.278,128.28 414.944,126.113 419.5,125.5C 419.961,122.697 421.295,120.363 423.5,118.5C 426.791,114.542 430.458,110.875 434.5,107.5C 440.682,102.251 447.015,97.2505 453.5,92.5C 457.468,90.1682 461.134,87.3349 464.5,84C 466.246,83.5291 467.913,82.8624 469.5,82C 472.067,78.997 474.734,76.1637 477.5,73.5 Z"/></g>
<g><path style="opacity:1" fill="#a06cab" d="M 250.5,83.5 C 251.496,83.4142 252.329,83.7476 253,84.5C 254.887,88.962 257.72,92.6287 261.5,95.5C 262.167,96.8333 262.833,98.1667 263.5,99.5C 264.511,101.372 265.345,103.372 266,105.5C 266.816,106.823 267.983,107.489 269.5,107.5C 269.822,111.487 271.656,114.487 275,116.5C 274.849,120.373 276.016,123.706 278.5,126.5C 277.316,128.046 276.316,129.713 275.5,131.5C 264.218,132.478 252.885,132.812 241.5,132.5C 244.143,115.964 247.143,99.6307 250.5,83.5 Z"/></g>
<g><path style="opacity:0.216" fill="#fbeef3" d="M 90.5,134.5 C 95.1785,134.666 99.8452,134.499 104.5,134C 109.695,129.634 114.695,125.134 119.5,120.5C 122.582,118.628 125.249,116.295 127.5,113.5C 131.12,111.715 133.953,109.048 136,105.5C 137.17,98.8233 138.337,92.1567 139.5,85.5C 139.5,84.5 139.5,83.5 139.5,82.5C 141.194,76.0282 142.528,69.3616 143.5,62.5C 140.833,62.5 138.167,62.5 135.5,62.5C 134.833,62.5 134.167,62.5 133.5,62.5C 113.833,62.5 94.1667,62.5 74.5,62.5C 79.6509,61.6733 84.9842,61.1733 90.5,61C 108.497,60.5001 126.497,60.3334 144.5,60.5C 142.528,76.9969 139.695,93.3302 136,109.5C 126.5,117.667 117,125.833 107.5,134C 101.765,135.753 96.0985,135.92 90.5,134.5 Z"/></g>
<g><path style="opacity:1" fill="#95dce2" d="M 685.5,82.5 C 686.99,86.942 687.99,91.6086 688.5,96.5C 687.034,95.653 686.2,94.3197 686,92.5C 685.502,89.1832 685.335,85.8499 685.5,82.5 Z"/></g>
<g><path style="opacity:0.8" fill="#f8d5a2" d="M 40.5,89.5 C 42.2624,90.2623 43.2624,91.5956 43.5,93.5C 41.7376,92.7377 40.7376,91.4044 40.5,89.5 Z"/></g>
<g><path style="opacity:1" fill="#c47295" d="M 107.5,87.5 C 106.188,90.6608 103.855,92.6608 100.5,93.5C 100.167,93.5 99.8333,93.5 99.5,93.5C 102.196,91.491 104.863,89.491 107.5,87.5 Z"/></g>
<g><path style="opacity:0.984" fill="#b4e06a" d="M 542.5,83.5 C 543.5,83.5 544.5,83.5 545.5,83.5C 544.059,89.8118 542.726,96.1452 541.5,102.5C 541.167,102.5 540.833,102.5 540.5,102.5C 540.571,99.9759 539.571,97.9759 537.5,96.5C 539.82,92.2739 541.486,87.9406 542.5,83.5 Z"/></g>
<g><path style="opacity:1" fill="#f8cc85" d="M 701.5,79.5 C 701.613,82.0488 700.946,84.3821 699.5,86.5C 698.176,88.9423 696.509,90.9423 694.5,92.5C 696.439,87.9098 698.773,83.5765 701.5,79.5 Z"/></g>
<g><path style="opacity:1" fill="#aa9bc4" d="M 72.5,76.5 C 72.5,81.8333 72.5,87.1667 72.5,92.5C 75.0593,92.1984 77.3926,92.5318 79.5,93.5C 76.1667,93.5 72.8333,93.5 69.5,93.5C 69.9797,87.6144 70.9797,81.9478 72.5,76.5 Z"/></g>
<g><path style="opacity:0.257" fill="#effad5" d="M 151.5,82.5 C 150.796,94.1787 148.796,105.512 145.5,116.5C 146.871,104.931 148.871,93.5979 151.5,82.5 Z"/></g>
<g><path style="opacity:0.078" fill="#d7f8f7" d="M 647.5,85.5 C 648.913,88.2186 649.58,91.2186 649.5,94.5C 648.087,91.7814 647.42,88.7814 647.5,85.5 Z"/></g>
<g><path style="opacity:0.49" fill="#d1c3df" d="M 69.5,93.5 C 72.8333,93.5 76.1667,93.5 79.5,93.5C 86.1667,93.5 92.8333,93.5 99.5,93.5C 99.8333,93.5 100.167,93.5 100.5,93.5C 100.167,94.1667 99.8333,94.8333 99.5,95.5C 99.1667,95.5 98.8333,95.5 98.5,95.5C 96.0521,94.5269 93.3854,94.1936 90.5,94.5C 83.3134,94.8245 76.3134,94.4912 69.5,93.5 Z"/></g>
<g><path style="opacity:0.192" fill="#fdf9de" d="M 451.5,40.5 C 451.833,40.5 452.167,40.5 452.5,40.5C 455.486,44.817 458.82,48.817 462.5,52.5C 466.785,58.7861 471.451,64.7861 476.5,70.5C 476.141,72.371 475.141,73.871 473.5,75C 466.344,80.3259 459.677,86.1592 453.5,92.5C 447.015,97.2505 440.682,102.251 434.5,107.5C 430.458,110.875 426.791,114.542 423.5,118.5C 417.567,122.426 411.901,126.759 406.5,131.5C 405.596,132.209 405.263,133.209 405.5,134.5C 422.342,134.83 439.008,134.497 455.5,133.5C 457.167,132.5 458.5,131.167 459.5,129.5C 467.792,122.049 476.292,114.716 485,107.5C 487.248,100.678 488.415,93.6782 488.5,86.5C 490.163,84.5615 490.829,82.2282 490.5,79.5C 490.833,79.5 491.167,79.5 491.5,79.5C 491.5,80.5 491.5,81.5 491.5,82.5C 490.453,91.2363 488.953,99.9029 487,108.5C 476.833,117.333 466.667,126.167 456.5,135C 453.776,135.27 451.109,135.77 448.5,136.5C 433.302,135.828 417.969,135.495 402.5,135.5C 402.393,133.097 403.393,131.264 405.5,130C 428.5,110.5 451.5,91 474.5,71.5C 467.113,62.4563 459.78,53.4563 452.5,44.5C 452.167,43.1667 451.833,41.8333 451.5,40.5 Z"/></g>
<g><path style="opacity:0.906" fill="#fae2b7" d="M 7.5,87.5 C 7.66409,90.1873 7.49742,92.854 7,95.5C 6.72158,96.4158 6.22158,97.0825 5.5,97.5C 5.75258,93.9601 6.41925,90.6267 7.5,87.5 Z"/></g>
<g><path style="opacity:1" fill="#fd6f6f" d="M 136.5,94.5 C 134.972,98.6387 133.972,102.972 133.5,107.5C 132.022,107.238 130.689,107.571 129.5,108.5C 130.629,110.529 130.129,110.863 128,109.5C 127.51,110.793 127.343,112.127 127.5,113.5C 125.249,116.295 122.582,118.628 119.5,120.5C 117.076,121.03 114.743,121.864 112.5,123C 111.663,124.011 111.33,125.178 111.5,126.5C 106.977,126.027 104.643,128.027 104.5,132.5C 94.8333,132.5 85.1667,132.5 75.5,132.5C 73.267,128.594 70.267,125.261 66.5,122.5C 66.5,122.167 66.5,121.833 66.5,121.5C 67.609,121.443 68.609,121.11 69.5,120.5C 72.0892,119.581 74.0892,117.914 75.5,115.5C 76.7079,114.766 78.0413,114.433 79.5,114.5C 79.5,113.5 79.5,112.5 79.5,111.5C 81.7488,110.92 83.4154,109.587 84.5,107.5C 86.7488,106.92 88.4154,105.587 89.5,103.5C 89.8333,103.5 90.1667,103.5 90.5,103.5C 94.1002,101.57 97.1002,98.9031 99.5,95.5C 111.783,94.5396 124.117,94.2062 136.5,94.5 Z"/></g>
<g><path style="opacity:0.184" fill="#ffefc4" d="M 694.5,92.5 C 694.443,93.609 694.11,94.609 693.5,95.5C 693.167,95.5 692.833,95.5 692.5,95.5C 692.427,93.9731 693.094,92.9731 694.5,92.5 Z"/></g>
<g><path style="opacity:0.851" fill="#c2e086" d="M 507.5,87.5 C 507.577,91.2148 507.244,94.8815 506.5,98.5C 505.935,100.42 504.935,102.087 503.5,103.5C 504.204,97.8806 505.538,92.5472 507.5,87.5 Z"/></g>
<g><path style="opacity:1" fill="#f6c676" d="M 43.5,93.5 C 47.2153,96.6067 50.2153,100.273 52.5,104.5C 49.7895,102.055 46.9562,99.7221 44,97.5C 43.51,96.2068 43.3433,94.8734 43.5,93.5 Z"/></g>
<g><path style="opacity:0.992" fill="#f0a4a5" d="M 284.5,95.5 C 284.833,95.5 285.167,95.5 285.5,95.5C 285.451,99.0781 284.785,102.411 283.5,105.5C 283.187,101.958 283.521,98.6248 284.5,95.5 Z"/></g>
<g><path style="opacity:0.09" fill="#ffeceb" d="M 90.5,94.5 C 93.3854,94.1936 96.0521,94.5269 98.5,95.5C 95.5,97.8333 92.8333,100.5 90.5,103.5C 90.1667,103.5 89.8333,103.5 89.5,103.5C 90.1833,99.9807 92.1833,97.4807 95.5,96C 93.6183,95.8019 91.9516,95.3019 90.5,94.5 Z"/></g>
<g><path style="opacity:0.898" fill="#eb807f" d="M 98.5,95.5 C 98.8333,95.5 99.1667,95.5 99.5,95.5C 97.1002,98.9031 94.1002,101.57 90.5,103.5C 92.8333,100.5 95.5,97.8333 98.5,95.5 Z"/></g>
<g><path style="opacity:0.043" fill="#d4f9f4" d="M 688.5,97.5 C 689.167,97.5 689.833,97.5 690.5,97.5C 689.85,99.4352 689.517,101.435 689.5,103.5C 689.167,103.5 688.833,103.5 688.5,103.5C 688.5,101.5 688.5,99.5 688.5,97.5 Z"/></g>
<g><path style="opacity:0.982" fill="#ec7b7f" d="M 139.5,85.5 C 138.337,92.1567 137.17,98.8233 136,105.5C 133.953,109.048 131.12,111.715 127.5,113.5C 127.343,112.127 127.51,110.793 128,109.5C 130.129,110.863 130.629,110.529 129.5,108.5C 130.689,107.571 132.022,107.238 133.5,107.5C 133.972,102.972 134.972,98.6387 136.5,94.5C 136.769,91.0708 137.769,88.0708 139.5,85.5 Z"/></g>
<g><path style="opacity:0.58" fill="#c3eaf2" d="M 649.5,98.5 C 650.117,98.6107 650.617,98.944 651,99.5C 651.495,101.473 651.662,103.473 651.5,105.5C 650.593,103.343 649.927,101.01 649.5,98.5 Z"/></g>
<g><path style="opacity:1" fill="#9fc94f" d="M 506.5,98.5 C 506.5,99.8333 506.5,101.167 506.5,102.5C 517.833,102.5 529.167,102.5 540.5,102.5C 540.539,103.756 540.039,104.756 539,105.5C 538.472,112.898 537.639,120.231 536.5,127.5C 536.617,129.484 535.95,131.15 534.5,132.5C 523.186,133.499 511.853,133.832 500.5,133.5C 500.998,128.848 501.331,124.181 501.5,119.5C 502.222,119.082 502.722,118.416 503,117.5C 503.499,113.848 503.665,110.182 503.5,106.5C 503.5,105.5 503.5,104.5 503.5,103.5C 504.935,102.087 505.935,100.42 506.5,98.5 Z"/></g>
<g><path style="opacity:0.681" fill="#9b8eb5" d="M 541.5,102.5 C 541.833,102.5 542.167,102.5 542.5,102.5C 567.833,102.5 593.167,102.5 618.5,102.5C 618.784,104.415 618.451,106.081 617.5,107.5C 617.67,106.178 617.337,105.011 616.5,104C 591.663,103.17 566.997,103.337 542.5,104.5C 543.01,107.388 542.344,109.721 540.5,111.5C 540.704,108.482 541.037,105.482 541.5,102.5 Z"/></g>
<g><path style="opacity:1" fill="#f0c66e" d="M 692.5,95.5 C 692.833,95.5 693.167,95.5 693.5,95.5C 692.321,99.0492 691.321,102.716 690.5,106.5C 689.596,105.791 689.263,104.791 689.5,103.5C 689.517,101.435 689.85,99.4352 690.5,97.5C 691.167,96.8333 691.833,96.1667 692.5,95.5 Z"/></g>
<g><path style="opacity:0.971" fill="#9f8cc1" d="M 542.5,104.5 C 566.997,103.337 591.663,103.17 616.5,104C 617.337,105.011 617.67,106.178 617.5,107.5C 617.172,115.171 615.839,122.504 613.5,129.5C 613.437,122.353 614.437,115.353 616.5,108.5C 616.43,107.228 616.097,106.062 615.5,105C 591.169,104.5 566.836,104.333 542.5,104.5 Z"/></g>
<g><path style="opacity:1" fill="#a088c9" d="M 542.5,104.5 C 566.836,104.333 591.169,104.5 615.5,105C 616.097,106.062 616.43,107.228 616.5,108.5C 614.437,115.353 613.437,122.353 613.5,129.5C 613.5,129.833 613.5,130.167 613.5,130.5C 612.711,130.783 612.044,131.283 611.5,132C 587.996,132.168 564.663,132.668 541.5,133.5C 540.5,133.5 539.5,133.5 538.5,133.5C 539.8,126.25 540.466,118.916 540.5,111.5C 542.344,109.721 543.01,107.388 542.5,104.5 Z"/></g>
<g><path style="opacity:0.984" fill="#f6d290" d="M 52.5,104.5 C 56.2153,107.607 59.2153,111.273 61.5,115.5C 57.7955,112.433 54.7955,108.766 52.5,104.5 Z"/></g>
<g><path style="opacity:1" fill="#be6b95" d="M 263.5,99.5 C 266.647,101.313 268.647,103.98 269.5,107.5C 267.983,107.489 266.816,106.823 266,105.5C 265.345,103.372 264.511,101.372 263.5,99.5 Z"/></g>
<g><path style="opacity:0.965" fill="#ebd6a2" d="M 5.5,101.5 C 5.5,103.833 5.5,106.167 5.5,108.5C 4.71087,108.217 4.0442,107.717 3.5,107C 4.10936,105.052 4.77602,103.218 5.5,101.5 Z"/></g>
<g><path style="opacity:0.965" fill="#efa09d" d="M 89.5,103.5 C 88.4154,105.587 86.7488,106.92 84.5,107.5C 85.5846,105.413 87.2512,104.08 89.5,103.5 Z"/></g>
<g><path style="opacity:0.017" fill="#fefffe" d="M -0.5,113.5 C -0.5,111.833 -0.5,110.167 -0.5,108.5C 0.649912,107.15 1.31658,107.316 1.5,109C 1.10099,110.728 0.434327,112.228 -0.5,113.5 Z"/></g>
<g><path style="opacity:1" fill="#3fb6b0" d="M 688.5,103.5 C 688.833,103.5 689.167,103.5 689.5,103.5C 689.263,104.791 689.596,105.791 690.5,106.5C 690.77,111.028 691.437,115.361 692.5,119.5C 692.221,124.595 692.555,129.595 693.5,134.5C 692.833,134.5 692.167,134.5 691.5,134.5C 684.833,134.5 678.167,134.5 671.5,134.5C 677.418,124.332 683.085,113.998 688.5,103.5 Z"/></g>
<g><path style="opacity:0.875" fill="#f8d18b" d="M 5.5,108.5 C 8.58986,110.268 10.5899,112.935 11.5,116.5C 9.12232,114.122 7.12232,111.455 5.5,108.5 Z"/></g>
<g><path style="opacity:0.863" fill="#f4b7b8" d="M 84.5,107.5 C 83.4154,109.587 81.7488,110.92 79.5,111.5C 80.5846,109.413 82.2512,108.08 84.5,107.5 Z"/></g>
<g><path style="opacity:1" fill="#debf62" d="M 690.5,106.5 C 691.117,106.611 691.617,106.944 692,107.5C 692.675,114.27 693.508,120.936 694.5,127.5C 693.833,124.833 693.167,122.167 692.5,119.5C 691.437,115.361 690.77,111.028 690.5,106.5 Z"/></g>
<g><path style="opacity:1" fill="#f4928e" d="M 283.5,106.5 C 283.156,110.894 282.49,115.228 281.5,119.5C 281.167,119.5 280.833,119.5 280.5,119.5C 280.336,116.813 280.503,114.146 281,111.5C 281.099,109.347 281.933,107.681 283.5,106.5 Z"/></g>
<g><path style="opacity:0.365" fill="#cef2f7" d="M 651.5,105.5 C 652.581,108.627 653.247,111.96 653.5,115.5C 651.825,112.493 651.159,109.16 651.5,105.5 Z"/></g>
<g><path style="opacity:1" fill="#f09898" d="M 79.5,111.5 C 79.5,112.5 79.5,113.5 79.5,114.5C 78.0413,114.433 76.7079,114.766 75.5,115.5C 76.326,113.736 77.6593,112.402 79.5,111.5 Z"/></g>
<g><path style="opacity:1" fill="#f8d593" d="M 722.5,111.5 C 722.25,113.674 721.25,115.341 719.5,116.5C 719.241,114.011 720.241,112.344 722.5,111.5 Z"/></g>
<g><path style="opacity:0.165" fill="#f9f4fc" d="M 193.5,63.5 C 197.923,70.0112 202.589,76.3446 207.5,82.5C 213.76,93.3605 220.76,103.694 228.5,113.5C 232.239,119.974 236.239,126.307 240.5,132.5C 240.328,133.492 240.662,134.158 241.5,134.5C 227.224,115.907 213.391,96.2402 200,75.5C 198.265,72.6377 196.098,70.3044 193.5,68.5C 193.5,68.1667 193.5,67.8333 193.5,67.5C 193.5,66.1667 193.5,64.8333 193.5,63.5 Z"/></g>
<g><path style="opacity:0.951" fill="#b0cb7a" d="M 503.5,106.5 C 503.665,110.182 503.499,113.848 503,117.5C 502.722,118.416 502.222,119.082 501.5,119.5C 501.5,116.833 501.5,114.167 501.5,111.5C 502.167,109.833 502.833,108.167 503.5,106.5 Z"/></g>
<g><path style="opacity:0.996" fill="#f6d293" d="M 61.5,115.5 C 63.914,116.911 65.5806,118.911 66.5,121.5C 64.086,120.089 62.4194,118.089 61.5,115.5 Z"/></g>
<g><path style="opacity:1" fill="#f7c87f" d="M 11.5,116.5 C 14.888,117.572 16.888,119.905 17.5,123.5C 14.7997,121.766 12.7997,119.432 11.5,116.5 Z"/></g>
<g><path style="opacity:1" fill="#a4be6e" d="M 540.5,102.5 C 540.833,102.5 541.167,102.5 541.5,102.5C 541.037,105.482 540.704,108.482 540.5,111.5C 539.539,113.265 539.205,115.265 539.5,117.5C 538.076,119.515 537.41,121.848 537.5,124.5C 537.5,125.5 537.5,126.5 537.5,127.5C 537.167,127.5 536.833,127.5 536.5,127.5C 537.639,120.231 538.472,112.898 539,105.5C 540.039,104.756 540.539,103.756 540.5,102.5 Z"/></g>
<g><path style="opacity:0.969" fill="#ee9a97" d="M 75.5,115.5 C 74.0892,117.914 72.0892,119.581 69.5,120.5C 70.9108,118.086 72.9108,116.419 75.5,115.5 Z"/></g>
<g><path style="opacity:0.059" fill="#c3f4f8" d="M 653.5,116.5 C 654.785,119.589 655.451,122.922 655.5,126.5C 653.989,123.456 653.322,120.122 653.5,116.5 Z"/></g>
<g><path style="opacity:0.914" fill="#d596aa" d="M 277.5,119.5 C 278.5,119.5 279.5,119.5 280.5,119.5C 280.833,119.5 281.167,119.5 281.5,119.5C 281.142,122.689 280.475,125.689 279.5,128.5C 279.935,125.162 279.268,122.162 277.5,119.5 Z"/></g>
<g><path style="opacity:1" fill="#ed827f" d="M 119.5,120.5 C 114.695,125.134 109.695,129.634 104.5,134C 99.8452,134.499 95.1785,134.666 90.5,134.5C 78.1667,134.5 65.8333,134.5 53.5,134.5C 53.5,134.167 53.5,133.833 53.5,133.5C 53.8333,133.5 54.1667,133.5 54.5,133.5C 55.1667,133.5 55.8333,133.5 56.5,133.5C 63.0221,133.823 69.3554,133.49 75.5,132.5C 85.1667,132.5 94.8333,132.5 104.5,132.5C 104.643,128.027 106.977,126.027 111.5,126.5C 111.33,125.178 111.663,124.011 112.5,123C 114.743,121.864 117.076,121.03 119.5,120.5 Z"/></g>
<g><path style="opacity:1" fill="#9ea495" d="M 539.5,117.5 C 539.59,120.152 538.924,122.485 537.5,124.5C 537.41,121.848 538.076,119.515 539.5,117.5 Z"/></g>
<g><path style="opacity:0.471" fill="#e9f8d6" d="M 145.5,116.5 C 145.815,120.371 145.482,124.038 144.5,127.5C 144.167,127.5 143.833,127.5 143.5,127.5C 143.43,123.575 144.097,119.909 145.5,116.5 Z"/></g>
<g><path style="opacity:1" fill="#f4d7a0" d="M 719.5,116.5 C 717.118,122.266 714.451,127.932 711.5,133.5C 704.713,135.064 698.046,135.397 691.5,134.5C 692.167,134.5 692.833,134.5 693.5,134.5C 694.404,133.791 694.737,132.791 694.5,131.5C 699.233,133.69 704.233,134.023 709.5,132.5C 712.358,126.766 715.691,121.433 719.5,116.5 Z"/></g>
<g><path style="opacity:1" fill="#f5d18d" d="M 17.5,124.5 C 20.179,124.525 21.5123,125.858 21.5,128.5C 19.8333,127.5 18.5,126.167 17.5,124.5 Z"/></g>
<g><path style="opacity:1" fill="#fa634e" d="M 66.5,122.5 C 70.267,125.261 73.267,128.594 75.5,132.5C 69.3554,133.49 63.0221,133.823 56.5,133.5C 60.8297,131.17 64.163,127.837 66.5,123.5C 66.5,123.167 66.5,122.833 66.5,122.5 Z"/></g>
<g><path style="opacity:1" fill="#f6d393" d="M 21.5,129.5 C 24.179,129.525 25.5123,130.858 25.5,133.5C 23.8333,132.5 22.5,131.167 21.5,129.5 Z"/></g>
<g><path style="opacity:1" fill="#f76e42" d="M 66.5,123.5 C 64.163,127.837 60.8297,131.17 56.5,133.5C 55.8333,133.5 55.1667,133.5 54.5,133.5C 57.7212,129.224 61.7212,125.891 66.5,123.5 Z"/></g>
<g><path style="opacity:0.982" fill="#76b188" d="M 692.5,119.5 C 693.167,122.167 693.833,124.833 694.5,127.5C 694.5,128.833 694.5,130.167 694.5,131.5C 694.737,132.791 694.404,133.791 693.5,134.5C 692.555,129.595 692.221,124.595 692.5,119.5 Z"/></g>
<g><path style="opacity:0.948" fill="#b9dd71" d="M 153.5,77.5 C 153.151,83.8399 152.651,90.1732 152,96.5C 149.454,108.346 147.287,120.179 145.5,132C 157.2,132.769 168.867,132.603 180.5,131.5C 180.335,128.15 180.502,124.817 181,121.5C 181.759,117.862 182.925,114.529 184.5,111.5C 183.686,118.867 182.686,126.201 181.5,133.5C 169.167,133.5 156.833,133.5 144.5,133.5C 144.5,131.5 144.5,129.5 144.5,127.5C 145.482,124.038 145.815,120.371 145.5,116.5C 148.796,105.512 150.796,94.1787 151.5,82.5C 151.5,82.1667 151.5,81.8333 151.5,81.5C 152.167,80.1667 152.833,78.8333 153.5,77.5 Z"/></g>
<g><path style="opacity:1" fill="#a06fa1" d="M 269.5,107.5 C 272.656,111.138 275.323,115.138 277.5,119.5C 279.268,122.162 279.935,125.162 279.5,128.5C 279.5,129.167 279.5,129.833 279.5,130.5C 278.596,131.209 278.263,132.209 278.5,133.5C 265.989,133.829 253.655,133.495 241.5,132.5C 252.885,132.812 264.218,132.478 275.5,131.5C 276.316,129.713 277.316,128.046 278.5,126.5C 276.016,123.706 274.849,120.373 275,116.5C 271.656,114.487 269.822,111.487 269.5,107.5 Z"/></g>
<g><path style="opacity:0.92" fill="#a18ec2" d="M 400.5,114.5 C 400.402,120.987 399.402,127.32 397.5,133.5C 385.5,133.5 373.5,133.5 361.5,133.5C 361.5,131.5 361.5,129.5 361.5,127.5C 361.205,125.265 361.539,123.265 362.5,121.5C 362.336,124.187 362.503,126.854 363,129.5C 363.5,130.667 364.333,131.5 365.5,132C 374.167,132.667 382.833,132.667 391.5,132C 392.672,131.581 393.672,130.915 394.5,130C 393.39,127.263 393.223,124.429 394,121.5C 395.009,123.025 395.509,124.692 395.5,126.5C 396.5,126.5 397.5,126.5 398.5,126.5C 397.911,122.029 398.577,118.029 400.5,114.5 Z"/></g>
<g><path style="opacity:0.95" fill="#f4be5e" d="M 423.5,118.5 C 421.295,120.363 419.961,122.697 419.5,125.5C 414.944,126.113 411.278,128.28 408.5,132C 424.167,132.667 439.833,132.667 455.5,132C 456.471,130.519 457.804,129.685 459.5,129.5C 458.5,131.167 457.167,132.5 455.5,133.5C 438.799,134.152 422.466,133.485 406.5,131.5C 411.901,126.759 417.567,122.426 423.5,118.5 Z"/></g>
<g><path style="opacity:0.925" fill="#9e8cbc" d="M 613.5,130.5 C 613.5,131.5 613.5,132.5 613.5,133.5C 589.5,133.5 565.5,133.5 541.5,133.5C 564.663,132.668 587.996,132.168 611.5,132C 612.044,131.283 612.711,130.783 613.5,130.5 Z"/></g>
<g><path style="opacity:0.854" fill="#eec987" d="M 25.5,133.5 C 34.8333,133.5 44.1667,133.5 53.5,133.5C 53.5,133.833 53.5,134.167 53.5,134.5C 53.5654,134.938 53.3988,135.272 53,135.5C 43.735,134.845 34.5683,134.179 25.5,133.5 Z"/></g>
<g><path style="opacity:0.891" fill="#a585a7" d="M 279.5,130.5 C 279.5,131.833 279.5,133.167 279.5,134.5C 266.833,134.5 254.167,134.5 241.5,134.5C 240.662,134.158 240.328,133.492 240.5,132.5C 240.833,132.5 241.167,132.5 241.5,132.5C 253.655,133.495 265.989,133.829 278.5,133.5C 278.263,132.209 278.596,131.209 279.5,130.5 Z"/></g>
<g><path style="opacity:0.584" fill="#b0a3c6" d="M 361.5,127.5 C 361.5,129.5 361.5,131.5 361.5,133.5C 373.5,133.5 385.5,133.5 397.5,133.5C 385.345,134.495 373.011,134.829 360.5,134.5C 360.198,131.941 360.532,129.607 361.5,127.5 Z"/></g>
<g><path style="opacity:0.627" fill="#edc885" d="M 406.5,131.5 C 422.466,133.485 438.799,134.152 455.5,133.5C 439.008,134.497 422.342,134.83 405.5,134.5C 405.263,133.209 405.596,132.209 406.5,131.5 Z"/></g>
<g><path style="opacity:0.661" fill="#aac083" d="M 501.5,119.5 C 501.331,124.181 500.998,128.848 500.5,133.5C 511.853,133.832 523.186,133.499 534.5,132.5C 535.95,131.15 536.617,129.484 536.5,127.5C 536.833,127.5 537.167,127.5 537.5,127.5C 537.5,129.833 537.5,132.167 537.5,134.5C 537.167,134.5 536.833,134.5 536.5,134.5C 523.833,134.5 511.167,134.5 498.5,134.5C 498.763,129.23 499.763,124.23 501.5,119.5 Z"/></g>
<g><path style="opacity:0.6" fill="#b0a4c5" d="M 540.5,111.5 C 540.466,118.916 539.8,126.25 538.5,133.5C 539.5,133.5 540.5,133.5 541.5,133.5C 565.5,133.5 589.5,133.5 613.5,133.5C 588.339,134.498 563.005,134.831 537.5,134.5C 537.5,132.167 537.5,129.833 537.5,127.5C 537.5,126.5 537.5,125.5 537.5,124.5C 538.924,122.485 539.59,120.152 539.5,117.5C 539.205,115.265 539.539,113.265 540.5,111.5 Z"/></g>
<g><path style="opacity:0.222" fill="#f6fee3" d="M 193.5,67.5 C 193.5,67.8333 193.5,68.1667 193.5,68.5C 189.942,90.848 186.275,113.181 182.5,135.5C 169.167,135.5 155.833,135.5 142.5,135.5C 142.194,132.615 142.527,129.948 143.5,127.5C 143.5,129.833 143.5,132.167 143.5,134.5C 156.344,134.829 169.011,134.495 181.5,133.5C 182.686,126.201 183.686,118.867 184.5,111.5C 187.619,98.4226 189.952,85.0893 191.5,71.5C 192.167,70.1667 192.833,68.8333 193.5,67.5 Z"/></g>
<g><path style="opacity:0.645" fill="#c5e096" d="M 143.5,127.5 C 143.833,127.5 144.167,127.5 144.5,127.5C 144.5,129.5 144.5,131.5 144.5,133.5C 156.833,133.5 169.167,133.5 181.5,133.5C 169.011,134.495 156.344,134.829 143.5,134.5C 143.5,132.167 143.5,129.833 143.5,127.5 Z"/></g>
<g><path style="opacity:0.234" fill="#f7fee7" d="M 501.5,111.5 C 501.5,114.167 501.5,116.833 501.5,119.5C 499.763,124.23 498.763,129.23 498.5,134.5C 511.167,134.5 523.833,134.5 536.5,134.5C 536.5,134.833 536.5,135.167 536.5,135.5C 523.5,135.5 510.5,135.5 497.5,135.5C 497.989,127.233 499.322,119.233 501.5,111.5 Z"/></g>
<g><path style="opacity:0.199" fill="#fdf8fe" d="M 543.5,99.5 C 568.812,101.491 594.478,102.157 620.5,101.5C 618.823,112.562 616.823,123.562 614.5,134.5C 588.509,135.5 562.509,135.833 536.5,135.5C 536.5,135.167 536.5,134.833 536.5,134.5C 536.833,134.5 537.167,134.5 537.5,134.5C 563.005,134.831 588.339,134.498 613.5,133.5C 613.5,132.5 613.5,131.5 613.5,130.5C 613.5,130.167 613.5,129.833 613.5,129.5C 615.839,122.504 617.172,115.171 617.5,107.5C 618.451,106.081 618.784,104.415 618.5,102.5C 593.167,102.5 567.833,102.5 542.5,102.5C 542.263,101.209 542.596,100.209 543.5,99.5 Z"/></g>
</svg>
