<?xml version="1.0" encoding="utf-8"?>
<!DOCTYPE svg PUBLIC "-//W3C//DTD SVG 1.0//EN" "http://www.w3.org/TR/2001/REC-SVG-20010904/DTD/svg10.dtd">
<svg version="1.0" xmlns="http://www.w3.org/2000/svg" width="710px" height="213px" viewBox="0 0 710 213" preserveAspectRatio="xMidYMid meet">
 <g fill="#ffffff">
  <path d="M0 106.5 l0 -106.5 355 0 355 0 0 106.5 0 106.5 -355 0 -355 0 0 -106.5z m123 95.5 c3.6 -0.5 12.6 -1.2 20 -1.5 7.4 -0.3 14.6 -0.8 15.9 -1.1 2.3 -0.5 2.3 -0.6 -1.3 -3 -2.1 -1.4 -6.5 -3.9 -9.9 -5.5 l-6.2 -2.8 -9.4 1.9 c-17.8 3.8 -36.1 2.1 -50.1 -4.7 -8.3 -4 -21.5 -17.7 -26.8 -27.9 -10 -19.4 -13.9 -38.1 -12.9 -63.2 1.4 -37.4 16.6 -61.6 44.1 -70 3.4 -1 9 -1.5 17.1 -1.5 10 0.1 13.4 0.5 20.4 2.7 11.2 3.4 21.4 10 29.9 19.1 l7 7.5 3.6 -7.1 c2 -4 3.6 -8 3.6 -9 0 -3.4 -7.2 -10.1 -14.5 -13.5 -15.4 -7.1 -41.8 -11.1 -56.1 -8.4 -29.9 5.5 -51.4 20.6 -67 46.8 -8.4 14 -13.6 30.8 -14.9 48.3 -1.5 19.8 6.3 45 19 61.1 8.9 11.4 26.8 23.6 40.9 28 14.1 4.4 33.1 5.9 47.6 3.8z m49.4 -17 c-1.4 -5.7 -1.5 -9.1 -0.4 -31.7 1.2 -25.1 1.2 -25.3 -1 -29.7 -2.9 -6.1 -9.7 -9.6 -18.7 -9.6 l-6.3 0 0.5 9.3 c0.2 5 0.7 16.3 1 25 0.6 17.6 1.7 22 6.9 27.6 3.4 3.7 18.8 16.2 19.3 15.7 0.2 -0.2 -0.4 -3.2 -1.3 -6.6z m205.1 -12.9 c1.9 -0.7 1.9 -1.8 1.6 -31.2 -0.3 -38 2.3 -73.2 6.5 -88.1 0.6 -2.2 -5.8 -5.6 -12 -6.4 -3.8 -0.6 -4.8 -0.3 -6.9 1.9 -1.4 1.3 -3.3 4.9 -4.2 7.8 -2.6 8.7 -5.4 27.2 -6 39.8 -0.3 6.4 -0.8 13.5 -1.1 15.9 -0.5 4 -0.7 4.2 -3.8 4.2 -3.3 0 -3.4 -0.2 -7.3 -9.7 -4.8 -11.6 -10.5 -30.1 -13.8 -44.9 -1.3 -5.8 -3.1 -11.5 -4.1 -12.5 -2.7 -3 -9.9 -5 -13.5 -3.7 -4.1 1.4 -7.6 7.3 -9.3 15.6 -3.6 17.1 -8.6 67.7 -8.6 86.4 0 13.6 0.9 17.7 4.9 21.2 2.5 2.2 10.1 3.2 15.1 1.9 l3.5 -0.9 0 -14 c0 -7.6 0.1 -19.9 0.3 -27.1 l0.2 -13.3 3.3 0 c3.1 0 3.4 0.4 9 11.4 6.5 12.9 21.9 36.6 26.6 41.1 4.6 4.3 14.4 6.6 19.6 4.6z m277 -0.5 c2.9 -1.2 3.6 -2.2 4.9 -6.8 7.3 -26.7 10.9 -38.6 17.8 -59.3 4.4 -13.2 10 -29 12.4 -35.2 2.4 -6.1 4.4 -11.6 4.4 -12.1 0 -1.8 -6.7 -6.9 -11.3 -8.7 -4.5 -1.7 -4.6 -1.7 -7.6 0.4 -3.3 2.4 -9.2 11.7 -12.3 19.6 -4.2 10.5 -11.9 38.4 -14.3 51.8 -0.7 3.7 -0.9 3.8 -4.3 3.5 l-3.6 -0.3 -1.7 -10 c-2.6 -15.7 -5 -37.7 -5.6 -52.8 -0.6 -12.4 -0.8 -13.9 -2.6 -14.9 -4.9 -2.6 -17.5 2 -20.2 7.3 -1.4 2.7 -1.5 4.7 -0.6 15.7 2.6 30.1 9.4 62.8 17.1 82.5 5.8 14.8 7.6 16.8 17.5 19.2 6.7 1.7 6.1 1.7 10 0.1z m-191.1 -4 c22.4 -11.1 40.5 -39.7 44.7 -70.6 4.1 -30.3 -21.6 -55.7 -54.1 -53.7 -13.2 0.9 -23.4 5.5 -26.1 11.8 -1.1 2.7 -0.8 3.7 2.6 10.4 l3.8 7.5 -2.8 17.2 c-2.2 13.4 -2.9 22 -3.3 37.9 -0.6 29.3 1.1 35.4 11.3 41.2 6.8 3.8 13.9 3.3 23.9 -1.7z m123.6 0.2 c2.4 -5.2 2.5 -9.9 0.5 -13.8 -2.6 -5 -4.5 -5.5 -25 -6 l-19 -0.5 0 -14.2 c0 -7.8 0.4 -14.5 0.8 -15 0.5 -0.4 6.5 -1 13.3 -1.2 14.1 -0.4 14.1 -0.4 15.5 -9.1 1.6 -10.4 -3.6 -14.5 -17.1 -13.4 l-8 0.7 0 -3.4 c0 -1.9 0.9 -6.7 1.9 -10.7 1.1 -4 1.5 -7.4 1 -7.8 -0.5 -0.3 -0.9 -2.1 -0.9 -4 l0 -3.4 11.3 0 c6.1 0 15.7 0.7 21.2 1.5 5.5 0.8 10.5 1.5 11.1 1.5 0.6 0 2.1 -2.2 3.3 -4.9 2.9 -6.1 2.2 -9.9 -2.4 -14 -5.6 -4.9 -9.2 -5.6 -28.5 -5.6 -26.4 0 -41.2 4 -45.6 12 -1.7 3.2 -1.7 3.5 0.1 7.4 1.6 3.6 2.2 4.1 5.2 4.1 3.2 0 3.3 0.1 3.3 3.9 0 2.2 -0.9 7.8 -2.1 12.6 -4.1 17.6 -5.9 33.9 -5.9 55.3 0 18.2 0.2 20.8 2 25 l2 4.7 22.8 -0.3 c16.8 -0.2 24.5 0.1 29.7 1.1 3.9 0.8 7.1 1.5 7.3 1.6 0.2 0 1.2 -1.8 2.2 -4.1z m-332.3 1.3 c12.4 -5.7 21.8 -21.5 23.9 -40.2 0.4 -3.5 1.3 -6.9 2 -7.6 0.6 -0.7 1.5 -4 1.9 -7.3 1.2 -10.5 -2.4 -13 -19 -13 -10.9 0 -15.9 1.3 -19.7 5 -3.1 3.1 -3.5 6 -1.7 12.4 l1.1 3.8 7.4 -0.7 7.4 -0.7 0 5.9 c0 7.9 -2.5 16 -6 19.5 -2.5 2.4 -3.6 2.8 -8.5 2.8 -5.1 0 -6 -0.3 -8.6 -3.1 -4.6 -5 -7 -14.3 -7.6 -30.1 -0.4 -8.8 -0.1 -16.6 0.7 -21.5 2.3 -14.4 8.2 -26.8 14.1 -29.9 4.1 -2.1 11.1 -1.8 14.2 0.6 2.6 2.1 4.7 8.8 4.7 15.2 l0 3.1 4.9 -0.5 c6.4 -0.6 9.8 -2.9 12.1 -8.2 3.4 -7.5 -0.2 -16.5 -9.2 -23.7 -18.2 -14.4 -45.4 -4.7 -57.8 20.6 -5.9 12.1 -8.3 23.3 -8.3 38.5 0 29.4 11.3 51.7 30 59 6.4 2.5 16.5 2.6 22 0.1z"/>
  <path d="M452.3 125.3 c0.4 -22 1.4 -33.2 4.3 -49.5 0.6 -3.3 0.4 -3.8 -2.5 -5.2 -2.6 -1.4 -3.1 -2.2 -3.1 -5.1 l0 -3.5 6.5 0 c10 0 16.2 1.7 20.6 5.7 5.3 4.8 6.9 10.6 6.9 25.4 0 13.6 -2.8 26.6 -7.9 36.8 -5.6 10.9 -15.5 20.1 -21.9 20.1 l-3.4 0 0.5 -24.7z"/>
 </g>
 <g fill="#191919">
  <path d="M362.3 174.7 c-2.3 -0.7 -5.6 -2.5 -7.3 -4.2 -4.8 -4.6 -19.4 -26.8 -26.5 -40.7 l-6.4 -12.3 -0.3 13.5 c-0.4 16.9 -0.1 32.4 0.6 37.2 0.6 3.7 0.5 3.7 -3.6 4.9 -6.6 1.7 -19.1 0.8 -21.8 -1.6 -4.3 -3.8 -5 -7.4 -5 -24.3 0 -21.5 4.7 -71 8.6 -89.4 2.4 -11.5 7.2 -16.8 15.4 -16.8 3.8 0 11.5 2.8 13.4 4.9 1 1 2.8 6.7 4.1 12.5 3.4 14.9 9 33.3 13.8 45 4.9 11.8 5.1 11.5 6 -8.4 1.2 -23.2 5.7 -45.1 10.4 -49.7 2.3 -2.4 3 -2.5 9.6 -2.1 6.8 0.5 14.6 3.2 16.1 5.7 0.4 0.5 -0.1 3.9 -0.9 7.5 -4.5 19.4 -6.9 52.9 -6.3 87.4 0.3 14.7 0.9 27.4 1.2 28.3 1.5 3.5 -11.8 5.1 -21.1 2.6z"/>
  <path d="M577 173.8 c-7.2 -1.6 -11.5 -1.8 -28.5 -1.4 -11 0.2 -21.2 0.7 -22.8 1.1 -2.5 0.7 -2.9 0.4 -5.2 -4.8 -2.5 -5.4 -2.6 -6.1 -2.6 -28.4 0 -24.1 1.7 -40.8 6.1 -59.1 2.6 -10.6 2.6 -10.5 -0.9 -9.7 -2.7 0.6 -3.2 0.3 -5 -3.4 -2.5 -4.9 -2.7 -11.3 -0.4 -15.1 2.3 -4 9.4 -7.5 19.3 -9.7 12.2 -2.6 47.4 -2.6 54.1 0 7.2 2.7 10.2 6.6 10.7 13.5 0.3 4.9 0 6.7 -2.3 11.1 -2.6 5.3 -2.7 5.3 -6.3 4.7 -12.9 -2.2 -24.8 -3.6 -32.1 -3.6 -8.1 0 -8.4 0.1 -6.7 1.9 1.5 1.7 1.5 2.4 -0.9 11.2 -1.4 5.2 -2.5 9.5 -2.5 9.6 0 0 3.5 -0.1 7.8 -0.4 14.3 -1 19.1 3.5 17.7 16.6 -0.4 3.5 -1.4 7.8 -2.2 9.5 l-1.4 3.1 -12.4 0 c-6.8 0 -12.7 0.4 -13.1 0.8 -0.5 0.4 -0.8 5.8 -0.9 12 l0 11.2 17.8 0.2 c20 0.3 23.6 1.2 26.2 6.3 2.5 4.8 2.1 14.2 -0.7 19.8 -1.3 2.5 -2.7 4.7 -3.3 4.8 -0.5 0 -4.8 -0.7 -9.5 -1.8z"/>
  <path d="M641.5 174.5 c-9.9 -2.4 -11.7 -4.4 -17.5 -19.2 -8.1 -20.6 -14.8 -54 -17.2 -85.1 -1 -13.6 -1 -15.6 0.5 -18.7 2.3 -4.8 8.4 -7.7 17.3 -8.3 11.1 -0.7 11 -0.9 11.7 16 0.9 20.7 5.8 60 7.7 62.1 0.4 0.5 1.1 -0.9 1.4 -3 1.4 -7.6 7.7 -32 10.7 -41.3 4.1 -12.6 9.6 -23.6 14.2 -28.2 3.1 -3.2 4.4 -3.8 8 -3.8 2.3 0 6.5 1.1 9.2 2.4 5.3 2.4 12 9 11.2 11 -6.8 16.3 -11.3 28.4 -18.2 49 -7.2 21.7 -10.7 33.3 -18.1 60.4 -1.3 4.6 -2 5.6 -4.9 6.8 -4 1.7 -9.1 1.6 -16 -0.1z"/>
  <path d="M237.4 174 c-17.9 -2.7 -29.9 -16.5 -36 -41.5 -2.7 -10.7 -2.4 -35.2 0.4 -46.9 3.1 -12.3 9 -24 15.8 -31 15.9 -16.2 40.7 -18.6 56.1 -5.2 5.2 4.5 8.1 10.5 8.9 18.2 0.5 4.9 0.2 6.6 -1.8 10.4 -3.1 6.1 -7.1 8 -16.9 8 l-7.7 0 0.8 -3.6 c1.2 -5.1 -0.9 -12.2 -4.2 -14.7 -6.9 -5.1 -15.5 4.2 -20.5 22.3 -2.8 10.1 -2.5 33.1 0.5 42.6 3.8 12.5 10.2 16.6 16.2 10.6 2.9 -2.9 6 -11.4 6 -16.2 0 -2.6 -0.1 -2.7 -4.2 -1.9 -2.4 0.4 -5.3 1 -6.5 1.4 -2.9 0.9 -4.9 -2.3 -6.1 -9.9 -2.3 -14.4 3.1 -18.5 24.8 -18.6 21.2 0 23.7 1.7 22.7 15.3 -0.7 9.1 -1.6 12.9 -2.7 12.2 -0.4 -0.2 -1 2.5 -1.4 6 -1.9 18.8 -11.6 35.2 -23.9 40.5 -5.2 2.2 -13.5 3 -20.3 2z"/>
  <path d="M436.5 172.3 c-10.6 -6 -11.9 -11.5 -11.2 -45.3 0.5 -18.8 1.1 -27.7 2.9 -38.5 l2.3 -14 -3.2 -6.3 c-5.2 -9.9 -4.3 -16.8 2.6 -21.6 6.1 -4.3 11.9 -5.8 24.1 -6.3 18.6 -0.8 33 3.8 43.3 14 18.2 18 19.2 47.3 2.7 80.2 -8.8 17.7 -19.5 29.2 -33.8 36.3 -6.5 3.1 -8.5 3.6 -16 3.9 -8 0.3 -9.1 0.2 -13.7 -2.4z m29.5 -33.9 c9.4 -10 16 -28.5 16 -45.3 0 -11.6 -1.9 -17.9 -6.9 -22.4 -4.2 -3.8 -12 -6.1 -18.3 -5.5 l-3.3 0.3 3.1 1.7 c1.7 1 3.4 2.4 3.8 3.3 0.3 0.8 -0.1 5 -0.9 9.3 -2.8 14.9 -4.5 33.8 -4.5 50.5 l0 16.8 3.1 -1.8 c1.7 -1 5.2 -4.1 7.9 -6.9z"/>
 </g>
 <g fill="#f7921e">
  <path d="M86 204.5 c-16.8 -3.2 -30.8 -9.6 -43.3 -20 -33.6 -27.8 -40.5 -84.5 -15.3 -126.7 15.6 -26.2 37.1 -41.3 67 -46.8 10.6 -2 30.5 -0.8 44.1 2.5 24.5 6 35.4 14.9 32.3 26.3 -1.3 4.9 -6.5 14.6 -9 16.9 -1.9 1.7 -2 1.7 -4.1 -1.2 -4.7 -6.6 -14.5 -15.9 -21.3 -20.1 -9.9 -6.2 -21.4 -9.5 -33 -9.5 -13.2 -0.1 -23.3 3.4 -34 11.9 -22.5 17.8 -30.9 61.5 -18.8 98.1 5.5 16.5 10.5 25.3 20.4 35.2 9.5 9.6 14.9 12.7 27.4 15.9 10 2.5 18.8 2.5 30.7 0 12.6 -2.6 14.3 -2.5 22.4 1.4 6 2.9 18.6 11.4 19.9 13.4 0.2 0.4 -5.1 0.8 -11.7 1 -6.7 0.1 -16.7 0.7 -22.2 1.3 -17.8 1.8 -43.2 2 -51.5 0.4z"/>
  <path d="M167 192.4 c-13.5 -10.7 -18.3 -15.7 -20.3 -21.2 -1.3 -3.6 -1.9 -10.4 -2.6 -28.7 -0.5 -13.3 -1.4 -25.3 -2 -26.9 -1.8 -4.4 -0.3 -5.1 10.1 -4.9 12.3 0.3 18.6 3.2 21.9 10 l2.2 4.6 -1.1 25.7 -1.2 25.7 2.5 9.4 c2.8 10.6 3.1 13.9 1.3 13.8 -0.7 0 -5.6 -3.4 -10.8 -7.5z"/>
 </g>
</svg>