<svg xmlns="http://www.w3.org/2000/svg"  viewBox="0 0 48 48" width="48px" height="48px"><circle cx="22.5" cy="20.5" r="1.5"/><circle cx="13.5" cy="20.5" r="1.3"/><path fill="none" stroke="#000" stroke-linecap="round" stroke-linejoin="round" stroke-width="3" d="M10.4,30.3c0,0-1.9,2.7-1.9,4.2c0,0,0.8,4,5.3,4c4.9,0,7.7-2,7.7-2"/><polyline fill="none" stroke="#000" stroke-linecap="round" stroke-linejoin="round" stroke-width="3" points="42.5,26.5 41.5,19.5 37.5,25.5 37.5,18.5 32.5,24.5"/><path fill="none" stroke="#000" stroke-linecap="round" stroke-linejoin="round" stroke-width="3" d="M34,30.7c0,0,0.3-0.2,1.2-0.2c1.3,0,2.3,0.8,2.3,2.2c0,1.4-1,2.8-3,2.8c0,2,0.9,5.3,2,8"/><path fill="none" stroke="#000" stroke-linecap="round" stroke-linejoin="round" stroke-width="3" d="M20.2,31.1c4.7,1.1,6.3,3.6,6.3,5.9c0,1.4-0.6,6.5-7,6.5c-4.4,0-8-2.6-8-5"/><path fill="none" stroke="#000" stroke-linecap="round" stroke-linejoin="round" stroke-width="3" d="M19.7,25.5H12c-1.4,0-2.5,1.1-2.5,2.5l0,0c0,1.4,1.1,2.5,2.5,2.5h2.5"/><circle cx="23" cy="21" r="5.5" fill="none" stroke="#000" stroke-width="3"/><path fill="none" stroke="#000" stroke-width="3" d="M14,25.5c-2.5,0-4.5-2-4.5-4.5s2-4.5,4.5-4.5c1.6,0,3,0.9,3.8,2.1"/><path d="M37.9,14.8c1,0,1.8-1,1.4-2c-0.6-1.7-1.5-3.2-2.8-4.5c-4-4-9.9-4.2-11-4.2c-8.5,0-13,7.2-13.5,12.3	c-0.1,0.8,0.5,1.6,1.3,1.6s1.6-0.5,1.6-1.3C15.4,12.8,19,7,25.6,7c2.5,0,6.4,0.9,8.9,3.3c0.9,0.9,1.6,2.1,2,3.4	C36.7,14.3,37.3,14.8,37.9,14.8L37.9,14.8z"/></svg>